<svg width="497" height="300" viewBox="0 0 497 300" fill="none" xmlns="http://www.w3.org/2000/svg">
<g clip-path="url(#clip0_42_13041)">
<ellipse cx="131" cy="138.5" rx="131" ry="43.5" fill="url(#paint0_linear_42_13041)" fill-opacity="0.5"/>
<ellipse cx="131" cy="158.5" rx="131" ry="43.5" fill="url(#paint1_linear_42_13041)" fill-opacity="0.5"/>
<path d="M256.5 125C256.5 131.29 253.016 137.346 246.575 142.916C240.135 148.485 230.786 153.523 219.191 157.764C196.006 166.245 163.941 171.5 128.5 171.5C93.0586 171.5 60.9944 166.245 37.8085 157.764C26.2136 153.523 16.8654 148.485 10.4252 142.916C3.98364 137.346 0.5 131.29 0.5 125C0.5 118.71 3.98364 112.654 10.4252 107.084C16.8654 101.515 26.2136 96.4765 37.8085 92.2356C60.9944 83.7551 93.0586 78.5 128.5 78.5C163.941 78.5 196.006 83.7551 219.191 92.2356C230.786 96.4765 240.135 101.515 246.575 107.084C253.016 112.654 256.5 118.71 256.5 125Z" fill="white" stroke="#31475E"/>
<path d="M79.2826 99.1607L79.6363 62.8475C79.6523 61.2021 80.9907 59.8767 82.6362 59.8767H147.028C148.673 59.8767 150.011 61.2021 150.027 62.8475L150.381 99.1411C150.391 100.229 149.812 101.237 148.867 101.776L115.935 120.561C115.005 121.092 113.862 121.086 112.937 120.547L80.7707 101.781C79.8401 101.238 79.2721 100.238 79.2826 99.1607Z" fill="white" stroke="#31475E"/>
<path d="M114.071 40.3357L80.6865 59.7797C79.693 60.3583 79.693 61.7935 80.6865 62.3721L114.071 81.8161C114.538 82.0878 115.115 82.0878 115.581 81.8161L148.966 62.3721C149.96 61.7935 149.96 60.3583 148.966 59.7797L115.581 40.3357C115.115 40.0639 114.538 40.0639 114.071 40.3357Z" fill="white" stroke="#31475E"/>
<path d="M79.2656 82.6545L112.989 101.432C113.888 101.933 114.98 101.938 115.883 101.446L150.398 82.6545" stroke="#31475E"/>
<path d="M79.2826 60.1829L79.6363 23.8697C79.6523 22.2243 80.9907 20.8989 82.6362 20.8989H147.028C148.673 20.8989 150.011 22.2243 150.027 23.8697L150.381 60.1633C150.391 61.2511 149.812 62.2594 148.867 62.7984L115.935 81.5834C115.005 82.1141 113.862 82.1085 112.937 81.5688L80.7707 62.8034C79.8401 62.2605 79.2721 61.2602 79.2826 60.1829Z" fill="white" stroke="#31475E"/>
<path d="M114.071 1.35789L80.6865 20.8019C79.693 21.3805 79.693 22.8157 80.6865 23.3943L114.071 42.8383C114.538 43.11 115.115 43.11 115.581 42.8383L148.966 23.3943C149.96 22.8157 149.96 21.3805 148.966 20.8019L115.581 1.35789C115.115 1.08614 114.538 1.08614 114.071 1.35789Z" fill="white" stroke="#31475E"/>
<path d="M79.2656 43.6768L112.989 62.4546C113.888 62.9549 114.98 62.9601 115.883 62.4683L150.398 43.6768" stroke="#31475E"/>
<path d="M40.306 122.547L40.6597 86.2337C40.6758 84.5883 42.0141 83.2629 43.6596 83.2629H108.051C109.696 83.2629 111.035 84.5883 111.051 86.2337L111.404 122.527C111.415 123.615 110.836 124.623 109.891 125.162L76.9589 143.947C76.0286 144.478 74.8859 144.473 73.9608 143.933L41.7942 125.167C40.8636 124.624 40.2955 123.624 40.306 122.547Z" fill="white" stroke="#31475E"/>
<path d="M75.0949 63.7219L41.7099 83.1659C40.7165 83.7445 40.7165 85.1797 41.7099 85.7583L75.0949 105.202C75.5615 105.474 76.1382 105.474 76.6048 105.202L109.99 85.7583C110.983 85.1797 110.983 83.7445 109.99 83.1659L76.6048 63.7219C76.1382 63.4502 75.5615 63.4502 75.0949 63.7219Z" fill="white" stroke="#31475E"/>
<path d="M40.2891 106.041L74.0125 124.819C74.911 125.319 76.0032 125.324 76.9064 124.832L111.421 106.041" stroke="#31475E"/>
<path d="M119.994 122.547L120.347 86.2335C120.363 84.5881 121.702 83.2627 123.347 83.2627H187.738C189.384 83.2627 190.722 84.5881 190.738 86.2335L191.092 122.527C191.102 123.615 190.523 124.623 189.578 125.162L156.646 143.947C155.716 144.478 154.573 144.472 153.648 143.933L121.482 125.167C120.551 124.624 119.983 123.624 119.994 122.547Z" fill="white" stroke="#31475E"/>
<path d="M154.782 63.7217L121.397 83.1657C120.404 83.7443 120.404 85.1795 121.397 85.758L154.782 105.202C155.249 105.474 155.826 105.474 156.292 105.202L189.677 85.758C190.671 85.1794 190.671 83.7443 189.677 83.1657L156.292 63.7217C155.826 63.4499 155.249 63.4499 154.782 63.7217Z" fill="white" stroke="#31475E"/>
<path d="M119.977 106.041L153.7 124.818C154.598 125.319 155.691 125.324 156.594 124.832L191.109 106.041" stroke="#31475E"/>
<path d="M40.306 83.5691L40.6597 47.2559C40.6758 45.6106 42.0141 44.2852 43.6596 44.2852H108.051C109.696 44.2852 111.035 45.6106 111.051 47.2559L111.404 83.5495C111.415 84.6373 110.836 85.6456 109.891 86.1846L76.9589 104.97C76.0286 105.5 74.8859 105.495 73.9608 104.955L41.7942 86.1896C40.8636 85.6467 40.2955 84.6465 40.306 83.5691Z" fill="white" stroke="#31475E"/>
<path d="M75.0949 24.7441L41.7099 44.1881C40.7165 44.7667 40.7165 46.2019 41.7099 46.7805L75.0949 66.2245C75.5615 66.4963 76.1382 66.4963 76.6048 66.2245L109.99 46.7805C110.983 46.2019 110.983 44.7667 109.99 44.1881L76.6048 24.7441C76.1382 24.4724 75.5615 24.4724 75.0949 24.7441Z" fill="white" stroke="#31475E"/>
<path d="M40.2891 67.063L74.0125 85.8408C74.911 86.3411 76.0032 86.3463 76.9064 85.8545L111.421 67.063" stroke="#31475E"/>
<path d="M119.994 83.5691L120.347 47.2559C120.363 45.6106 121.702 44.2852 123.347 44.2852H187.738C189.384 44.2852 190.722 45.6106 190.738 47.2559L191.092 83.5495C191.102 84.6373 190.523 85.6456 189.578 86.1846L156.646 104.97C155.716 105.5 154.573 105.495 153.648 104.955L121.482 86.1896C120.551 85.6467 119.983 84.6465 119.994 83.5691Z" fill="white" stroke="#31475E"/>
<path d="M154.782 24.7441L121.397 44.1881C120.404 44.7667 120.404 46.2019 121.397 46.7805L154.782 66.2245C155.249 66.4963 155.826 66.4963 156.292 66.2245L189.677 46.7805C190.671 46.2019 190.671 44.7667 189.677 44.1881L156.292 24.7441C155.826 24.4724 155.249 24.4724 154.782 24.7441Z" fill="white" stroke="#31475E"/>
<path d="M119.977 67.063L153.7 85.8408C154.598 86.3411 155.691 86.3463 156.594 85.8545L191.109 67.063" stroke="#31475E"/>
<path d="M80.1498 146.8L80.5035 110.487C80.5195 108.841 81.8579 107.516 83.5034 107.516H147.895C149.54 107.516 150.879 108.841 150.895 110.487L151.248 146.78C151.259 147.868 150.68 148.876 149.735 149.415L116.803 168.2C115.872 168.731 114.73 168.725 113.805 168.186L81.6379 149.42C80.7073 148.877 80.1393 147.877 80.1498 146.8Z" fill="white" stroke="#31475E"/>
<path d="M114.939 87.9748L81.5536 107.419C80.5602 107.997 80.5602 109.433 81.5537 110.011L114.939 129.455C115.405 129.727 115.982 129.727 116.449 129.455L149.834 110.011C150.827 109.433 150.827 107.997 149.834 107.419L116.449 87.9748C115.982 87.7031 115.405 87.7031 114.939 87.9748Z" fill="white" stroke="#31475E"/>
<path d="M80.1328 130.294L113.856 149.071C114.755 149.572 115.847 149.577 116.75 149.085L151.265 130.294" stroke="#31475E"/>
<path d="M80.1498 107.821L80.5035 71.5076C80.5195 69.8623 81.8579 68.5369 83.5034 68.5369H147.895C149.54 68.5369 150.879 69.8623 150.895 71.5076L151.248 107.801C151.259 108.889 150.68 109.897 149.735 110.436L116.803 129.221C115.872 129.752 114.73 129.746 113.805 129.207L81.6379 110.441C80.7073 109.898 80.1393 108.898 80.1498 107.821Z" fill="white" stroke="#31475E"/>
<path d="M114.939 48.9958L81.5536 68.4398C80.5602 69.0184 80.5602 70.4536 81.5537 71.0322L114.939 90.4762C115.405 90.748 115.982 90.748 116.449 90.4762L149.834 71.0322C150.827 70.4536 150.827 69.0184 149.834 68.4398L116.449 48.9958C115.982 48.7241 115.405 48.7241 114.939 48.9958Z" fill="white" stroke="#31475E"/>
<path d="M80.1328 91.3147L113.856 110.092C114.755 110.593 115.847 110.598 116.75 110.106L151.265 91.3147" stroke="#31475E"/>
<path d="M130.386 28.0039C119 35.3494 106.666 31.0646 101.922 28.0039V5.96759C101.922 4.43728 104.676 1.28486 115.695 0.917585C126.713 0.550312 130.079 4.13122 130.386 5.96759V28.0039Z" fill="white"/>
<path d="M116.02 0C120.019 0 123.638 0.532977 126.326 1.42902C127.67 1.87704 128.783 2.41103 129.613 3.06482C130.442 3.71828 131.03 4.55671 131.03 5.53088L131.031 27.6544C131.031 28.6292 130.442 29.4667 129.612 30.1205C128.783 30.7743 127.669 31.3082 126.325 31.7563C123.637 32.6523 120.017 33.1853 116.019 33.1853C112.02 33.1853 108.401 32.6523 105.713 31.7563C104.368 31.3082 103.255 30.7743 102.425 30.1205C101.596 29.4667 101.006 28.6292 101.006 27.6544V5.53088H101.007C101.008 4.55671 101.595 3.71828 102.424 3.06482C103.254 2.41103 104.37 1.87704 105.714 1.42902C108.402 0.532977 112.022 0 116.02 0ZM116.02 1.58102C112.164 1.58102 108.672 2.10846 106.213 2.92825C104.983 3.33813 104.014 3.82654 103.404 4.30711C102.794 4.78767 102.587 5.19812 102.587 5.53242C102.587 5.86673 102.794 6.27332 103.404 6.75388C104.014 7.23443 104.983 7.72361 106.213 8.13351C108.672 8.95328 112.164 9.48074 116.02 9.48074C119.877 9.48074 123.365 8.95328 125.824 8.13351C127.054 7.72361 128.023 7.23443 128.633 6.75388C129.243 6.27332 129.449 5.86673 129.449 5.53242C129.449 5.19812 129.243 4.78767 128.633 4.30711C128.023 3.82654 127.054 3.33813 125.824 2.92825C123.365 2.10846 119.877 1.58102 116.02 1.58102ZM129.451 8.11654C128.64 8.71558 127.586 9.21273 126.326 9.63274C123.638 10.5288 120.019 11.0618 116.02 11.0618C112.022 11.0618 108.402 10.5288 105.714 9.63274C104.454 9.21277 103.398 8.71549 102.587 8.11654L102.587 12.642C102.587 12.9763 102.794 13.3868 103.404 13.8673C104.014 14.3479 104.983 14.834 106.213 15.2439C108.672 16.0637 112.164 16.5942 116.02 16.5942C119.877 16.5942 123.365 16.0637 125.824 15.2439C127.054 14.834 128.023 14.3479 128.633 13.8673C129.243 13.3868 129.449 12.9763 129.449 12.642L129.451 8.11654ZM129.451 15.2269C128.64 15.8259 127.586 16.3223 126.326 16.7423C123.638 17.6384 120.019 18.1714 116.02 18.1714C112.022 18.1714 108.402 17.6384 105.714 16.7423C104.454 16.3224 103.398 15.8258 102.587 15.2269L102.588 20.5425C102.588 20.8768 102.794 21.2865 103.404 21.767C104.014 22.2476 104.983 22.7368 106.213 23.1467C108.672 23.9665 112.164 24.4939 116.02 24.4939C119.877 24.4939 123.365 23.9665 125.824 23.1467C127.054 22.7368 128.023 22.2476 128.633 21.767C129.243 21.2865 129.449 20.8768 129.449 20.5425L129.451 15.2269ZM129.451 23.1297C128.64 23.7287 127.586 24.2259 126.326 24.6459C123.638 25.5419 120.019 26.0749 116.02 26.0749C112.022 26.0749 108.402 25.5419 105.714 24.6459C104.454 24.2259 103.398 23.7287 102.587 23.1297V27.6544C102.587 27.9887 102.793 28.3984 103.403 28.8789C104.013 29.3595 104.982 29.8471 106.212 30.257C108.671 31.0768 112.163 31.605 116.019 31.605C119.875 31.605 123.367 31.0768 125.826 30.257C127.056 29.8471 128.025 29.3595 128.635 28.8789C129.244 28.3984 129.451 27.9887 129.451 27.6544V23.1297Z" fill="#FF5C00"/>
<path d="M105.81 25.6231C106.019 25.6269 106.218 25.7134 106.363 25.8634C106.508 26.0135 106.588 26.2151 106.585 26.4239V28.002C106.591 28.1093 106.575 28.2168 106.538 28.3178C106.502 28.4188 106.445 28.5112 106.371 28.5894C106.297 28.6675 106.208 28.7299 106.109 28.7724C106.011 28.815 105.904 28.837 105.797 28.837C105.689 28.837 105.583 28.815 105.484 28.7724C105.386 28.7299 105.297 28.6675 105.223 28.5894C105.149 28.5112 105.092 28.4188 105.056 28.3178C105.019 28.2168 105.003 28.1093 105.009 28.002V26.4239C105.008 26.3183 105.027 26.2134 105.067 26.1156C105.107 26.0177 105.166 25.9288 105.24 25.8541C105.315 25.7794 105.404 25.7205 105.502 25.6809C105.6 25.6412 105.704 25.6215 105.81 25.6231Z" fill="#FF5C00"/>
<path d="M108.566 26.4105C108.67 26.412 108.772 26.4339 108.867 26.475C108.963 26.516 109.049 26.5754 109.121 26.6498C109.193 26.7242 109.25 26.812 109.288 26.9083C109.326 27.0047 109.345 27.1076 109.344 27.2112V28.7894C109.344 28.9986 109.261 29.1993 109.113 29.3473C108.965 29.4953 108.764 29.5784 108.555 29.5784C108.345 29.5784 108.145 29.4953 107.997 29.3473C107.849 29.1993 107.766 28.9986 107.766 28.7894V27.2112C107.764 27.1056 107.784 27.0008 107.823 26.9029C107.863 26.8051 107.922 26.7161 107.996 26.6415C108.071 26.5668 108.16 26.5079 108.258 26.4682C108.356 26.4285 108.461 26.4089 108.566 26.4105Z" fill="#FF5C00"/>
<path d="M105.81 18.1288C106.018 18.1326 106.217 18.2185 106.362 18.368C106.507 18.5175 106.587 18.7183 106.585 18.9266V20.5047C106.591 20.612 106.575 20.7195 106.538 20.8205C106.502 20.9215 106.445 21.0139 106.371 21.0921C106.297 21.1703 106.208 21.2325 106.109 21.2751C106.011 21.3177 105.904 21.3397 105.797 21.3397C105.689 21.3397 105.583 21.3177 105.484 21.2751C105.386 21.2325 105.297 21.1703 105.223 21.0921C105.149 21.0139 105.092 20.9215 105.056 20.8205C105.019 20.7195 105.003 20.612 105.009 20.5047V18.9266C105.008 18.8212 105.028 18.7167 105.068 18.6191C105.108 18.5216 105.167 18.4331 105.241 18.3587C105.316 18.2844 105.405 18.2257 105.502 18.1862C105.6 18.1467 105.705 18.1272 105.81 18.1288Z" fill="#FF5C00"/>
<path d="M108.566 18.9178C108.775 18.9209 108.974 19.0065 109.12 19.1561C109.266 19.3056 109.346 19.5068 109.344 19.7156V21.2938C109.344 21.5031 109.261 21.7038 109.113 21.8517C108.965 21.9997 108.764 22.0829 108.555 22.0829C108.345 22.0829 108.145 21.9997 107.997 21.8517C107.849 21.7038 107.766 21.5031 107.766 21.2938V19.7156C107.764 19.6103 107.784 19.5058 107.824 19.4083C107.864 19.3107 107.923 19.2222 107.998 19.1478C108.072 19.0734 108.161 19.0148 108.259 18.9753C108.356 18.9358 108.461 18.9162 108.566 18.9178Z" fill="#FF5C00"/>
<path d="M105.81 10.6363C106.019 10.6401 106.218 10.7265 106.363 10.8766C106.508 11.0267 106.588 11.2282 106.585 11.437V13.0123C106.591 13.1196 106.575 13.227 106.538 13.328C106.502 13.429 106.445 13.5215 106.371 13.5996C106.297 13.6778 106.208 13.7401 106.109 13.7827C106.011 13.8252 105.904 13.8472 105.797 13.8472C105.689 13.8472 105.583 13.8252 105.484 13.7827C105.386 13.7401 105.297 13.6778 105.223 13.5996C105.149 13.5215 105.092 13.429 105.056 13.328C105.019 13.227 105.003 13.1196 105.009 13.0123V11.437C105.008 11.3315 105.027 11.2266 105.067 11.1288C105.107 11.0309 105.166 10.942 105.24 10.8673C105.315 10.7926 105.404 10.7337 105.502 10.6941C105.6 10.6544 105.704 10.6347 105.81 10.6363Z" fill="#FF5C00"/>
<path d="M108.566 11.4237C108.775 11.4267 108.974 11.5124 109.12 11.6619C109.266 11.8115 109.346 12.0127 109.344 12.2215V13.7996C109.344 14.0089 109.261 14.2096 109.113 14.3576C108.965 14.5056 108.764 14.5887 108.555 14.5887C108.345 14.5887 108.145 14.5056 107.997 14.3576C107.849 14.2096 107.766 14.0089 107.766 13.7996V12.2215C107.764 12.1161 107.784 12.0116 107.824 11.9141C107.864 11.8165 107.923 11.728 107.998 11.6537C108.072 11.5793 108.161 11.5206 108.259 11.4811C108.356 11.4416 108.461 11.4221 108.566 11.4237Z" fill="#FF5C00"/>
<path d="M169.862 49.1221C158.477 56.4676 146.142 52.1827 141.398 49.1221V27.0857C141.398 25.5554 144.153 22.403 155.171 22.0357C166.189 21.6685 169.556 25.2494 169.862 27.0857V49.1221Z" fill="white"/>
<path d="M155.497 21.1182C159.496 21.1182 163.114 21.6511 165.803 22.5472C167.147 22.9952 168.26 23.5292 169.09 24.183C169.919 24.8364 170.506 25.6749 170.507 26.649L170.508 48.7726C170.508 49.7474 169.918 50.5848 169.089 51.2386C168.259 51.8924 167.146 52.4264 165.802 52.8744C163.114 53.7705 159.494 54.3034 155.495 54.3034C151.497 54.3034 147.877 53.7705 145.189 52.8744C143.845 52.4264 142.732 51.8924 141.902 51.2386C141.072 50.5848 140.483 49.7474 140.483 48.7726V26.649H140.484C140.484 25.6749 141.071 24.8364 141.9 24.183C142.73 23.5292 143.847 22.9952 145.191 22.5472C147.879 21.6511 151.498 21.1182 155.497 21.1182ZM155.497 22.6992C151.641 22.6992 148.148 23.2266 145.689 24.0464C144.459 24.4563 143.49 24.9447 142.88 25.4253C142.271 25.9058 142.064 26.3163 142.064 26.6506C142.064 26.9849 142.271 27.3915 142.88 27.872C143.49 28.3526 144.459 28.8418 145.689 29.2517C148.148 30.0714 151.641 30.5989 155.497 30.5989C159.353 30.5989 162.842 30.0714 165.301 29.2517C166.531 28.8418 167.5 28.3526 168.11 27.872C168.719 27.3915 168.926 26.9849 168.926 26.6506C168.926 26.3163 168.719 25.9058 168.11 25.4253C167.5 24.9447 166.531 24.4563 165.301 24.0464C162.842 23.2266 159.353 22.6992 155.497 22.6992ZM168.928 29.2347C168.117 29.8337 167.063 30.3309 165.803 30.7509C163.114 31.6469 159.496 32.1799 155.497 32.1799C151.498 32.1799 147.879 31.6469 145.191 30.7509C143.931 30.3309 142.874 29.8337 142.063 29.2347L142.064 33.7602C142.064 34.0945 142.271 34.5049 142.88 34.9855C143.49 35.466 144.459 35.9522 145.689 36.362C148.148 37.1818 151.641 37.7123 155.497 37.7123C159.353 37.7123 162.842 37.1818 165.301 36.362C166.531 35.9522 167.5 35.466 168.11 34.9855C168.719 34.5049 168.926 34.0945 168.926 33.7602L168.928 29.2347ZM168.928 36.3451C168.117 36.944 167.063 37.4405 165.803 37.8605C163.114 38.7565 159.496 39.2895 155.497 39.2895C151.498 39.2895 147.879 38.7565 145.191 37.8605C143.931 37.4406 142.874 36.944 142.063 36.3451L142.064 41.6607C142.064 41.995 142.271 42.4046 142.88 42.8852C143.49 43.3658 144.459 43.855 145.689 44.2648C148.148 45.0846 151.641 45.6121 155.497 45.6121C159.353 45.6121 162.842 45.0846 165.301 44.2648C166.531 43.855 167.5 43.3658 168.11 42.8852C168.719 42.4046 168.926 41.995 168.926 41.6607L168.928 36.3451ZM168.928 44.2479C168.117 44.8469 167.063 45.3441 165.803 45.7641C163.114 46.6601 159.496 47.1931 155.497 47.1931C151.498 47.1931 147.879 46.6601 145.191 45.7641C143.931 45.3441 142.874 44.8468 142.063 44.2479V48.7726C142.063 49.1069 142.27 49.5166 142.88 49.9971C143.489 50.4777 144.459 50.9653 145.688 51.3752C148.148 52.195 151.639 52.7232 155.495 52.7232C159.352 52.7232 162.843 52.195 165.303 51.3752C166.532 50.9653 167.501 50.4777 168.111 49.9971C168.721 49.5166 168.928 49.1069 168.928 48.7726V44.2479Z" fill="#FF5C00"/>
<path d="M145.287 46.7413C145.495 46.7451 145.694 46.8315 145.839 46.9816C145.985 47.1317 146.064 47.3332 146.061 47.542V49.1202C146.067 49.2275 146.052 49.3349 146.015 49.4359C145.978 49.5369 145.921 49.6293 145.847 49.7075C145.774 49.7857 145.685 49.848 145.586 49.8906C145.487 49.9332 145.381 49.9551 145.274 49.9551C145.166 49.9551 145.06 49.9332 144.961 49.8906C144.862 49.848 144.773 49.7857 144.7 49.7075C144.626 49.6293 144.569 49.5369 144.532 49.4359C144.495 49.3349 144.48 49.2275 144.486 49.1202V47.542C144.484 47.4364 144.504 47.3316 144.544 47.2337C144.583 47.1359 144.642 47.047 144.717 46.9723C144.792 46.8976 144.88 46.8387 144.978 46.799C145.076 46.7594 145.181 46.7397 145.287 46.7413Z" fill="#FF5C00"/>
<path d="M148.043 47.5287C148.146 47.5302 148.249 47.5521 148.344 47.5931C148.439 47.6342 148.525 47.6936 148.597 47.768C148.67 47.8423 148.726 47.9302 148.765 48.0265C148.803 48.1228 148.822 48.2257 148.82 48.3294V49.9075C148.82 50.1168 148.737 50.3175 148.589 50.4655C148.441 50.6135 148.24 50.6966 148.031 50.6966C147.822 50.6966 147.621 50.6135 147.473 50.4655C147.325 50.3175 147.242 50.1168 147.242 49.9075V48.3294C147.24 48.2238 147.26 48.119 147.3 48.0211C147.339 47.9232 147.398 47.8343 147.473 47.7596C147.548 47.685 147.637 47.6261 147.735 47.5864C147.832 47.5467 147.937 47.5271 148.043 47.5287Z" fill="#FF5C00"/>
<path d="M145.287 39.2469C145.495 39.2507 145.693 39.3367 145.838 39.4862C145.983 39.6356 146.064 39.8364 146.061 40.0447V41.6229C146.067 41.7302 146.052 41.8376 146.015 41.9386C145.978 42.0396 145.921 42.1321 145.847 42.2102C145.774 42.2884 145.685 42.3507 145.586 42.3933C145.487 42.4358 145.381 42.4578 145.274 42.4578C145.166 42.4578 145.06 42.4358 144.961 42.3933C144.862 42.3507 144.773 42.2884 144.7 42.2102C144.626 42.1321 144.569 42.0396 144.532 41.9386C144.495 41.8376 144.48 41.7302 144.486 41.6229V40.0447C144.485 39.9394 144.505 39.8348 144.544 39.7373C144.584 39.6398 144.643 39.5513 144.718 39.4769C144.793 39.4025 144.881 39.3439 144.979 39.3044C145.077 39.2649 145.181 39.2453 145.287 39.2469Z" fill="#FF5C00"/>
<path d="M148.043 40.036C148.252 40.039 148.451 40.1247 148.596 40.2742C148.742 40.4238 148.823 40.625 148.82 40.8338V42.4119C148.82 42.6212 148.737 42.8219 148.589 42.9699C148.441 43.1179 148.24 43.201 148.031 43.201C147.822 43.201 147.621 43.1179 147.473 42.9699C147.325 42.8219 147.242 42.6212 147.242 42.4119V40.8338C147.241 40.7284 147.261 40.6239 147.301 40.5264C147.341 40.4289 147.4 40.3403 147.474 40.266C147.549 40.1916 147.638 40.1329 147.735 40.0934C147.833 40.0539 147.937 40.0344 148.043 40.036Z" fill="#FF5C00"/>
<path d="M145.287 31.7545C145.495 31.7583 145.694 31.8447 145.839 31.9948C145.985 32.1449 146.064 32.3464 146.061 32.5552V34.1305C146.067 34.2377 146.052 34.3452 146.015 34.4462C145.978 34.5472 145.921 34.6396 145.847 34.7178C145.774 34.796 145.685 34.8583 145.586 34.9008C145.487 34.9434 145.381 34.9654 145.274 34.9654C145.166 34.9654 145.06 34.9434 144.961 34.9008C144.862 34.8583 144.773 34.796 144.7 34.7178C144.626 34.6396 144.569 34.5472 144.532 34.4462C144.495 34.3452 144.48 34.2377 144.486 34.1305V32.5552C144.484 32.4496 144.504 32.3448 144.544 32.2469C144.583 32.1491 144.642 32.0601 144.717 31.9855C144.792 31.9108 144.88 31.8519 144.978 31.8122C145.076 31.7725 145.181 31.7529 145.287 31.7545Z" fill="#FF5C00"/>
<path d="M148.043 32.5418C148.252 32.5449 148.451 32.6306 148.596 32.7801C148.742 32.9296 148.823 33.1309 148.82 33.3396V34.9178C148.82 35.1271 148.737 35.3278 148.589 35.4758C148.441 35.6237 148.24 35.7069 148.031 35.7069C147.822 35.7069 147.621 35.6237 147.473 35.4758C147.325 35.3278 147.242 35.1271 147.242 34.9178V33.3396C147.241 33.2343 147.261 33.1298 147.301 33.0322C147.341 32.9347 147.4 32.8462 147.474 32.7718C147.549 32.6975 147.638 32.6388 147.735 32.5993C147.833 32.5598 147.937 32.5403 148.043 32.5418Z" fill="#FF5C00"/>
<path d="M129.464 72.9949C118.078 80.3404 105.744 76.0555 101 72.9949V50.9586C101 49.4282 103.755 46.2758 114.773 45.9086C125.791 45.5413 129.158 49.1222 129.464 50.9586V72.9949Z" fill="white"/>
<path d="M115.099 44.991C119.097 44.991 122.716 45.5239 125.404 46.42C126.748 46.868 127.862 47.402 128.691 48.0558C129.52 48.7092 130.108 49.5477 130.109 50.5218L130.109 72.6454C130.109 73.6202 129.52 74.4576 128.69 75.1114C127.861 75.7652 126.747 76.2992 125.403 76.7472C122.715 77.6433 119.096 78.1763 115.097 78.1763C111.098 78.1763 107.479 77.6433 104.791 76.7472C103.447 76.2992 102.333 75.7652 101.504 75.1114C100.674 74.4576 100.085 73.6202 100.085 72.6454V50.5218H100.085C100.086 49.5477 100.673 48.7092 101.502 48.0558C102.332 47.402 103.448 46.868 104.792 46.42C107.48 45.5239 111.1 44.991 115.099 44.991ZM115.099 46.572C111.242 46.572 107.75 47.0994 105.291 47.9192C104.061 48.3291 103.092 48.8175 102.482 49.2981C101.872 49.7786 101.666 50.1891 101.666 50.5234C101.666 50.8577 101.872 51.2643 102.482 51.7448C103.092 52.2254 104.061 52.7146 105.291 53.1245C107.75 53.9442 111.242 54.4717 115.099 54.4717C118.955 54.4717 122.443 53.9442 124.903 53.1245C126.132 52.7146 127.101 52.2254 127.711 51.7448C128.321 51.2643 128.528 50.8577 128.528 50.5234C128.528 50.1891 128.321 49.7786 127.711 49.2981C127.101 48.8175 126.132 48.3291 124.903 47.9192C122.443 47.0994 118.955 46.572 115.099 46.572ZM128.529 53.1075C127.718 53.7065 126.664 54.2037 125.404 54.6237C122.716 55.5198 119.097 56.0527 115.099 56.0527C111.1 56.0527 107.48 55.5198 104.792 54.6237C103.532 54.2037 102.476 53.7065 101.665 53.1075L101.666 57.633C101.666 57.9673 101.872 58.3777 102.482 58.8583C103.092 59.3388 104.061 59.825 105.291 60.2348C107.75 61.0546 111.242 61.5852 115.099 61.5852C118.955 61.5852 122.443 61.0546 124.903 60.2348C126.132 59.825 127.101 59.3388 127.711 58.8583C128.321 58.3777 128.528 57.9673 128.528 57.633L128.529 53.1075ZM128.529 60.2179C127.718 60.8168 126.664 61.3133 125.404 61.7333C122.716 62.6293 119.097 63.1623 115.099 63.1623C111.1 63.1623 107.48 62.6293 104.792 61.7333C103.532 61.3134 102.476 60.8168 101.665 60.2179L101.666 65.5335C101.666 65.8678 101.872 66.2775 102.482 66.758C103.092 67.2386 104.061 67.7278 105.291 68.1376C107.75 68.9574 111.242 69.4849 115.099 69.4849C118.955 69.4849 122.443 68.9574 124.903 68.1376C126.132 67.7278 127.101 67.2386 127.711 66.758C128.321 66.2775 128.528 65.8678 128.528 65.5335L128.529 60.2179ZM128.529 68.1207C127.718 68.7197 126.664 69.2169 125.404 69.6369C122.716 70.5329 119.097 71.0659 115.099 71.0659C111.1 71.0659 107.48 70.5329 104.792 69.6369C103.532 69.2169 102.476 68.7196 101.665 68.1207V72.6454C101.665 72.9797 101.871 73.3894 102.481 73.8699C103.091 74.3505 104.06 74.8381 105.29 75.248C107.749 76.0678 111.241 76.596 115.097 76.596C118.953 76.596 122.445 76.0678 124.904 75.248C126.134 74.8381 127.103 74.3505 127.713 73.8699C128.323 73.3894 128.529 72.9797 128.529 72.6454V68.1207Z" fill="#FF5C00"/>
<path d="M104.888 70.6141C105.097 70.6179 105.296 70.7043 105.441 70.8544C105.586 71.0045 105.666 71.206 105.663 71.4148V72.993C105.669 73.1003 105.653 73.2077 105.617 73.3087C105.58 73.4097 105.523 73.5021 105.449 73.5803C105.375 73.6585 105.286 73.7208 105.188 73.7634C105.089 73.806 104.983 73.8279 104.875 73.8279C104.768 73.8279 104.661 73.806 104.563 73.7634C104.464 73.7208 104.375 73.6585 104.301 73.5803C104.227 73.5021 104.17 73.4097 104.134 73.3087C104.097 73.2077 104.081 73.1003 104.087 72.993V71.4148C104.086 71.3092 104.106 71.2044 104.145 71.1065C104.185 71.0087 104.244 70.9198 104.318 70.8451C104.393 70.7704 104.482 70.7115 104.58 70.6718C104.678 70.6322 104.783 70.6125 104.888 70.6141Z" fill="#FF5C00"/>
<path d="M107.644 71.4015C107.748 71.403 107.85 71.4249 107.945 71.4659C108.041 71.507 108.127 71.5664 108.199 71.6408C108.271 71.7151 108.328 71.803 108.366 71.8993C108.404 71.9956 108.423 72.0986 108.422 72.2022V73.7803C108.422 73.9896 108.339 74.1903 108.191 74.3383C108.043 74.4863 107.842 74.5694 107.633 74.5694C107.423 74.5694 107.223 74.4863 107.075 74.3383C106.927 74.1903 106.844 73.9896 106.844 73.7803V72.2022C106.842 72.0966 106.862 71.9918 106.901 71.8939C106.941 71.796 107 71.7071 107.075 71.6324C107.149 71.5578 107.238 71.4989 107.336 71.4592C107.434 71.4195 107.539 71.3999 107.644 71.4015Z" fill="#FF5C00"/>
<path d="M104.888 63.1197C105.096 63.1235 105.295 63.2095 105.44 63.359C105.585 63.5084 105.665 63.7092 105.663 63.9175V65.4957C105.669 65.603 105.653 65.7104 105.617 65.8114C105.58 65.9124 105.523 66.0049 105.449 66.083C105.375 66.1612 105.286 66.2235 105.188 66.2661C105.089 66.3086 104.983 66.3306 104.875 66.3306C104.768 66.3306 104.661 66.3086 104.563 66.2661C104.464 66.2235 104.375 66.1612 104.301 66.083C104.227 66.0049 104.17 65.9124 104.134 65.8114C104.097 65.7104 104.081 65.603 104.087 65.4957V63.9175C104.086 63.8122 104.106 63.7076 104.146 63.6101C104.186 63.5126 104.245 63.4241 104.32 63.3497C104.394 63.2753 104.483 63.2167 104.581 63.1772C104.678 63.1377 104.783 63.1181 104.888 63.1197Z" fill="#FF5C00"/>
<path d="M107.644 63.9088C107.853 63.9118 108.052 63.9975 108.198 64.147C108.344 64.2966 108.424 64.4978 108.422 64.7066V66.2847C108.422 66.494 108.339 66.6947 108.191 66.8427C108.043 66.9907 107.842 67.0738 107.633 67.0738C107.423 67.0738 107.223 66.9907 107.075 66.8427C106.927 66.6947 106.844 66.494 106.844 66.2847V64.7066C106.842 64.6012 106.862 64.4967 106.902 64.3992C106.942 64.3017 107.001 64.2131 107.076 64.1388C107.15 64.0644 107.239 64.0057 107.337 63.9662C107.434 63.9267 107.539 63.9072 107.644 63.9088Z" fill="#FF5C00"/>
<path d="M104.888 55.6273C105.097 55.6311 105.296 55.7175 105.441 55.8676C105.586 56.0177 105.666 56.2192 105.663 56.428V58.0033C105.669 58.1106 105.653 58.218 105.617 58.319C105.58 58.42 105.523 58.5124 105.449 58.5906C105.375 58.6688 105.286 58.7311 105.188 58.7736C105.089 58.8162 104.983 58.8382 104.875 58.8382C104.768 58.8382 104.661 58.8162 104.563 58.7736C104.464 58.7311 104.375 58.6688 104.301 58.5906C104.227 58.5124 104.17 58.42 104.134 58.319C104.097 58.218 104.081 58.1106 104.087 58.0033V56.428C104.086 56.3224 104.106 56.2176 104.145 56.1197C104.185 56.0219 104.244 55.9329 104.318 55.8583C104.393 55.7836 104.482 55.7247 104.58 55.685C104.678 55.6453 104.783 55.6257 104.888 55.6273Z" fill="#FF5C00"/>
<path d="M107.644 56.4146C107.853 56.4177 108.052 56.5034 108.198 56.6529C108.344 56.8024 108.424 57.0037 108.422 57.2125V58.7906C108.422 58.9999 108.339 59.2006 108.191 59.3486C108.043 59.4965 107.842 59.5797 107.633 59.5797C107.423 59.5797 107.223 59.4965 107.075 59.3486C106.927 59.2006 106.844 58.9999 106.844 58.7906V57.2125C106.842 57.1071 106.862 57.0026 106.902 56.905C106.942 56.8075 107.001 56.719 107.076 56.6446C107.15 56.5703 107.239 56.5116 107.337 56.4721C107.434 56.4326 107.539 56.4131 107.644 56.4146Z" fill="#FF5C00"/>
<path d="M90.9011 51.8768C79.5157 59.2222 67.1814 54.9374 62.4375 51.8768V29.8404C62.4375 28.3101 65.192 25.1577 76.2102 24.7904C87.2284 24.4231 90.5951 28.004 90.9011 29.8404V51.8768Z" fill="white"/>
<path d="M76.536 23.8728C80.5346 23.8728 84.1535 24.4058 86.8416 25.3018C88.1857 25.7498 89.2991 26.2838 90.1287 26.9376C90.9578 27.5911 91.5455 28.4295 91.5461 29.4037L91.5469 51.5272C91.5469 52.502 90.9575 53.3395 90.1279 53.9933C89.2983 54.6471 88.1849 55.181 86.8408 55.6291C84.1527 56.5251 80.533 57.0581 76.5345 57.0581C72.5359 57.0581 68.9162 56.5251 66.2281 55.6291C64.8841 55.181 63.7707 54.6471 62.9411 53.9933C62.1115 53.3395 61.5221 52.502 61.5221 51.5272V29.4037H61.5229C61.5235 28.4295 62.1104 27.5911 62.9395 26.9376C63.7691 26.2838 64.8856 25.7498 66.2297 25.3018C68.9178 24.4058 72.5375 23.8728 76.536 23.8728ZM76.536 25.4538C72.6798 25.4538 69.1875 25.9813 66.7281 26.8011C65.4985 27.2109 64.5293 27.6993 63.9195 28.1799C63.3097 28.6605 63.1031 29.0709 63.1031 29.4052C63.1031 29.7395 63.3097 30.1461 63.9195 30.6267C64.5293 31.1072 65.4985 31.5964 66.7281 32.0063C69.1875 32.8261 72.6798 33.3535 76.536 33.3535C80.3922 33.3535 83.8807 32.8261 86.3401 32.0063C87.5697 31.5964 88.5389 31.1072 89.1487 30.6267C89.7585 30.1461 89.9651 29.7395 89.9651 29.4052C89.9651 29.0709 89.7585 28.6605 89.1487 28.1799C88.5389 27.6993 87.5697 27.2109 86.3401 26.8011C83.8807 25.9813 80.3922 25.4538 76.536 25.4538ZM89.9666 31.9893C89.1559 32.5884 88.1017 33.0855 86.8416 33.5055C84.1535 34.4016 80.5346 34.9346 76.536 34.9346C72.5375 34.9346 68.9178 34.4016 66.2297 33.5055C64.9697 33.0856 63.9134 32.5883 63.1023 31.9893L63.1031 36.5148C63.1031 36.8491 63.3097 37.2596 63.9195 37.7401C64.5293 38.2207 65.4985 38.7068 66.7281 39.1167C69.1875 39.9365 72.6798 40.467 76.536 40.467C80.3922 40.467 83.8807 39.9365 86.3401 39.1167C87.5697 38.7068 88.5389 38.2207 89.1487 37.7401C89.7585 37.2596 89.9651 36.8491 89.9651 36.5148L89.9666 31.9893ZM89.9666 39.0997C89.1559 39.6987 88.1016 40.1951 86.8416 40.6151C84.1535 41.5112 80.5346 42.0442 76.536 42.0442C72.5375 42.0442 68.9178 41.5112 66.2297 40.6151C64.9698 40.1952 63.9134 39.6986 63.1023 39.0997L63.1031 44.4153C63.1031 44.7496 63.3097 45.1593 63.9195 45.6398C64.5293 46.1204 65.4985 46.6096 66.7281 47.0195C69.1875 47.8393 72.6798 48.3667 76.536 48.3667C80.3922 48.3667 83.8807 47.8393 86.3401 47.0195C87.5697 46.6096 88.5389 46.1204 89.1487 45.6398C89.7585 45.1593 89.9651 44.7496 89.9651 44.4153L89.9666 39.0997ZM89.9666 47.0025C89.1559 47.6015 88.1017 48.0987 86.8416 48.5187C84.1535 49.4147 80.5346 49.9477 76.536 49.9477C72.5375 49.9477 68.9178 49.4147 66.2297 48.5187C64.9697 48.0987 63.9134 47.6015 63.1023 47.0025V51.5272C63.1023 51.8615 63.3089 52.2712 63.9187 52.7517C64.5285 53.2323 65.4977 53.72 66.7274 54.1298C69.1867 54.9496 72.6783 55.4778 76.5345 55.4778C80.3907 55.4778 83.8823 54.9496 86.3416 54.1298C87.5713 53.72 88.5405 53.2323 89.1503 52.7517C89.76 52.2712 89.9666 51.8615 89.9666 51.5272V47.0025Z" fill="#FF5C00"/>
<path d="M66.3257 49.4959C66.5345 49.4997 66.7333 49.5862 66.8784 49.7362C67.0236 49.8863 67.1034 50.0879 67.1002 50.2967V51.8748C67.1065 51.9821 67.0908 52.0896 67.054 52.1906C67.0173 52.2916 66.9603 52.384 66.8865 52.4622C66.8128 52.5404 66.7238 52.6027 66.6251 52.6452C66.5264 52.6878 66.4201 52.7098 66.3126 52.7098C66.2051 52.7098 66.0988 52.6878 66.0001 52.6452C65.9014 52.6027 65.8124 52.5404 65.7387 52.4622C65.6649 52.384 65.6079 52.2916 65.5712 52.1906C65.5344 52.0896 65.5187 51.9821 65.525 51.8748V50.2967C65.5234 50.1911 65.543 50.0862 65.5827 49.9884C65.6224 49.8905 65.6813 49.8016 65.756 49.7269C65.8306 49.6522 65.9195 49.5934 66.0174 49.5537C66.1153 49.514 66.2201 49.4944 66.3257 49.4959Z" fill="#FF5C00"/>
<path d="M69.0819 50.2833C69.1855 50.2848 69.2878 50.3067 69.383 50.3478C69.4781 50.3888 69.5643 50.4482 69.6365 50.5226C69.7087 50.597 69.7655 50.6848 69.8037 50.7812C69.842 50.8775 69.8608 50.9804 69.8593 51.084V52.6622C69.8593 52.8714 69.7762 53.0722 69.6282 53.2201C69.4802 53.3681 69.2795 53.4512 69.0702 53.4512C68.8609 53.4512 68.6602 53.3681 68.5122 53.2201C68.3643 53.0722 68.2811 52.8714 68.2811 52.6622V51.084C68.2795 50.9784 68.2992 50.8736 68.3389 50.7757C68.3785 50.6779 68.4375 50.5889 68.5121 50.5143C68.5868 50.4396 68.6757 50.3807 68.7736 50.341C68.8714 50.3013 68.9763 50.2817 69.0819 50.2833Z" fill="#FF5C00"/>
<path d="M66.3257 42.0016C66.534 42.0054 66.7323 42.0914 66.8774 42.2408C67.0225 42.3903 67.1026 42.5911 67.1002 42.7994V44.3775C67.1065 44.4848 67.0908 44.5923 67.054 44.6933C67.0173 44.7943 66.9603 44.8867 66.8865 44.9649C66.8128 45.0431 66.7238 45.1053 66.6251 45.1479C66.5264 45.1905 66.4201 45.2125 66.3126 45.2125C66.2051 45.2125 66.0988 45.1905 66.0001 45.1479C65.9014 45.1053 65.8124 45.0431 65.7387 44.9649C65.6649 44.8867 65.6079 44.7943 65.5712 44.6933C65.5344 44.5923 65.5187 44.4848 65.525 44.3775V42.7994C65.5238 42.694 65.5437 42.5895 65.5836 42.492C65.6234 42.3944 65.6824 42.3059 65.757 42.2315C65.8317 42.1572 65.9204 42.0985 66.0181 42.059C66.1158 42.0195 66.2204 42 66.3257 42.0016Z" fill="#FF5C00"/>
<path d="M69.0819 42.7906C69.2907 42.7937 69.4897 42.8793 69.6355 43.0289C69.7812 43.1784 69.8617 43.3796 69.8593 43.5884V45.1666C69.8593 45.3759 69.7762 45.5766 69.6282 45.7245C69.4802 45.8725 69.2795 45.9557 69.0702 45.9557C68.861 45.9557 68.6603 45.8725 68.5123 45.7245C68.3643 45.5766 68.2812 45.3759 68.2812 45.1666V43.5884C68.28 43.4831 68.2999 43.3786 68.3397 43.2811C68.3796 43.1835 68.4386 43.095 68.5132 43.0206C68.5878 42.9462 68.6766 42.8876 68.7743 42.8481C68.872 42.8086 68.9766 42.789 69.0819 42.7906Z" fill="#FF5C00"/>
<path d="M66.3257 34.5091C66.5345 34.5129 66.7333 34.5993 66.8784 34.7494C67.0236 34.8995 67.1034 35.1011 67.1002 35.3098V36.8851C67.1065 36.9924 67.0908 37.0998 67.054 37.2008C67.0173 37.3018 66.9603 37.3943 66.8865 37.4724C66.8128 37.5506 66.7238 37.6129 66.6251 37.6555C66.5264 37.698 66.4201 37.72 66.3126 37.72C66.2051 37.72 66.0988 37.698 66.0001 37.6555C65.9014 37.6129 65.8124 37.5506 65.7387 37.4724C65.6649 37.3943 65.6079 37.3018 65.5712 37.2008C65.5344 37.0998 65.5187 36.9924 65.525 36.8851V35.3098C65.5234 35.2043 65.543 35.0994 65.5827 35.0016C65.6224 34.9037 65.6813 34.8148 65.756 34.7401C65.8306 34.6654 65.9195 34.6065 66.0174 34.5669C66.1153 34.5272 66.2201 34.5075 66.3257 34.5091Z" fill="#FF5C00"/>
<path d="M69.0819 35.2965C69.2907 35.2995 69.4897 35.3852 69.6355 35.5347C69.7812 35.6843 69.8617 35.8855 69.8593 36.0943V37.6724C69.8593 37.8817 69.7762 38.0824 69.6282 38.2304C69.4802 38.3784 69.2795 38.4615 69.0702 38.4615C68.861 38.4615 68.6603 38.3784 68.5123 38.2304C68.3643 38.0824 68.2812 37.8817 68.2812 37.6724V36.0943C68.28 35.9889 68.2999 35.8844 68.3398 35.7869C68.3796 35.6893 68.4386 35.6008 68.5132 35.5265C68.5879 35.4521 68.6766 35.3934 68.7743 35.3539C68.872 35.3144 68.9766 35.2949 69.0819 35.2965Z" fill="#FF5C00"/>
<path d="M298.57 298.378L160.299 211.666C157.046 209.627 157.211 204.835 160.595 203.023L352.372 100.334C353.918 99.506 355.784 99.5484 357.29 100.445L489.777 179.331C493.035 181.271 493.033 185.989 489.773 187.926L303.78 298.441C302.169 299.398 300.158 299.374 298.57 298.378Z" fill="#FFF1EA" stroke="#31475E" stroke-linejoin="round"/>
<path d="M304.55 169.794L209.258 218.578V199.105L211.626 179.383L214.233 154.188L255.695 129.231L280.15 115.621L293.461 108.423L300.14 104L304.55 108.423V169.794Z" fill="white"/>
<path d="M299.801 104.17L213.953 154.007C212.508 154.833 211.167 156.38 210.29 157.67C209.825 158.496 209.361 159.785 209.258 161.643V217.517C209.258 222.985 211.683 224.378 214.83 222.573L300.988 172.735C303.464 171.29 305.012 167.782 305.012 164.945L304.651 108.039C304.548 107.678 304.341 107.368 304.135 107.007C302.897 104.995 300.678 104.376 299.801 104.17Z" stroke="#31475E" stroke-miterlimit="10"/>
<path d="M362.944 205.543V203.479C362.996 202.551 362.377 201.622 361.19 200.951L311.353 172.112C311.043 171.905 310.734 171.751 310.476 171.596C309.96 171.389 309.444 171.183 309.031 171.08C307.071 170.616 305.368 171.08 304.336 171.493L299.383 174.072L217.146 221.536C215.96 222.207 215.341 223.136 215.289 224.065V226.18C215.289 227.108 215.857 228.037 217.095 228.708L265.849 256.825C268.893 258.579 273.794 258.528 276.838 256.774L361.139 208.123C362.325 207.452 362.944 206.523 362.996 205.646V205.543C362.944 205.595 362.944 205.595 362.944 205.543Z" stroke="#31475E" stroke-miterlimit="10"/>
<path d="M299.336 106.643L215.654 155.191C214.261 156.016 212.971 157.461 212.094 158.751C211.63 159.576 211.217 160.814 211.062 162.62V217.101C211.062 222.415 213.436 223.808 216.48 222.054L300.522 173.454C302.947 172.061 304.443 168.656 304.443 165.87V109.687C304.443 106.231 302.38 104.889 299.336 106.643Z" stroke="#31475E" stroke-miterlimit="10"/>
<path d="M213.805 166.75V162.83C213.805 162.314 214.166 161.694 214.63 161.437L303.11 110.361C303.729 110 304.451 110.412 304.451 111.135V114.437L304.142 114.591L213.805 166.75ZM303.368 111.393L215.146 162.314C214.991 162.417 214.888 162.623 214.888 162.778V164.893L303.368 113.817V111.393Z" fill="#31475E"/>
<path d="M216.172 162.928C216.172 162.619 216.43 162.206 216.688 162.051C216.997 161.896 217.204 161.999 217.204 162.361C217.204 162.67 216.946 163.083 216.688 163.238C216.43 163.392 216.172 163.289 216.172 162.928Z" fill="#31475E"/>
<path d="M218.031 161.847C218.031 161.537 218.289 161.124 218.547 160.97C218.857 160.815 219.063 160.918 219.063 161.279C219.063 161.589 218.857 162.001 218.547 162.156C218.289 162.311 218.031 162.208 218.031 161.847Z" fill="#31475E"/>
<path d="M219.891 160.814C219.891 160.505 220.097 160.092 220.407 159.937C220.716 159.783 220.922 159.886 220.922 160.247C220.922 160.556 220.664 160.969 220.407 161.124C220.097 161.279 219.891 161.124 219.891 160.814Z" fill="#31475E"/>
<path d="M306.919 171.235C307.383 171.235 307.848 171.287 308.26 171.39C308.725 171.545 309.189 171.699 309.55 171.854C309.808 171.957 310.066 172.112 310.324 172.267L310.891 172.628H310.943L360.11 201.107C360.884 201.571 361.348 202.138 361.348 202.654C361.348 203.222 360.884 203.841 360.007 204.305L275.861 252.853C274.519 253.627 272.714 254.04 270.805 254.04C268.947 254.04 267.193 253.627 265.955 252.905L217.304 224.839C216.53 224.374 216.066 223.807 216.066 223.239C216.066 222.672 216.53 222.053 217.407 221.588L299.438 174.227L304.288 171.699C304.907 171.545 305.835 171.235 306.919 171.235ZM306.919 170.152C305.681 170.152 304.597 170.461 303.875 170.771L298.922 173.35L216.891 220.711C214.467 222.104 214.415 224.426 216.84 225.819L265.439 253.885C266.935 254.762 268.896 255.175 270.856 255.175C272.868 255.175 274.88 254.71 276.428 253.833L360.574 205.286C362.999 203.893 363.102 201.623 360.677 200.23L310.943 171.441C310.634 171.235 310.324 171.08 310.066 170.925C309.55 170.719 309.086 170.513 308.621 170.41C308.002 170.203 307.435 170.152 306.919 170.152Z" fill="#31475E"/>
<path d="M299.075 177.527C298.662 177.32 298.662 176.908 299.075 176.701C299.488 176.495 300.107 176.495 300.52 176.701C300.932 176.908 300.932 177.32 300.52 177.527C300.107 177.733 299.488 177.733 299.075 177.527Z" fill="#31475E"/>
<path d="M301.661 176.028C301.248 175.822 301.248 175.409 301.661 175.203C302.074 174.996 302.693 174.996 303.106 175.203C303.518 175.409 303.518 175.822 303.106 176.028C302.693 176.286 302.022 176.286 301.661 176.028Z" fill="#31475E"/>
<path d="M304.185 174.585C303.772 174.379 303.772 173.966 304.185 173.76C304.597 173.553 305.216 173.553 305.629 173.76C306.042 173.966 306.042 174.379 305.629 174.585C305.268 174.791 304.597 174.791 304.185 174.585Z" fill="#31475E"/>
<path d="M235.514 223.084C235.823 223.238 235.823 223.548 235.514 223.703L231.18 226.231C230.871 226.385 230.406 226.385 230.097 226.231L226.279 224.012C225.969 223.857 225.969 223.548 226.279 223.393L230.613 220.865C230.922 220.71 231.387 220.71 231.696 220.865L235.514 223.084ZM238.816 216.789C238.506 216.635 238.042 216.635 237.732 216.789L233.399 219.317C233.089 219.472 233.089 219.782 233.399 219.936L237.216 222.155C237.526 222.31 237.99 222.31 238.3 222.155L242.634 219.627C242.943 219.472 242.943 219.163 242.634 219.008L238.816 216.789ZM245.935 212.662C245.626 212.507 245.162 212.507 244.852 212.662L240.518 215.19C240.209 215.345 240.209 215.654 240.518 215.809L244.336 218.028C244.646 218.182 245.11 218.182 245.42 218.028L249.753 215.5C250.063 215.345 250.063 215.035 249.753 214.88L245.935 212.662ZM253.055 208.535C252.746 208.38 252.281 208.38 251.972 208.535L247.638 211.063C247.328 211.217 247.328 211.527 247.638 211.682L251.456 213.9C251.765 214.055 252.23 214.055 252.539 213.9L256.873 211.372C257.182 211.217 257.182 210.908 256.873 210.753L253.055 208.535ZM260.33 204.356C260.02 204.201 259.556 204.201 259.246 204.356L254.912 206.884C254.603 207.039 254.603 207.348 254.912 207.503L258.73 209.721C259.04 209.876 259.504 209.876 259.814 209.721L264.147 207.193C264.457 207.039 264.457 206.729 264.147 206.574L260.33 204.356ZM267.449 200.228C267.14 200.074 266.675 200.074 266.366 200.228L262.032 202.756C261.722 202.911 261.722 203.221 262.032 203.376L265.85 205.594C266.159 205.749 266.624 205.749 266.933 205.594L271.267 203.066C271.576 202.911 271.576 202.602 271.267 202.447L267.449 200.228ZM274.569 196.153C274.259 195.998 273.795 195.998 273.485 196.153L269.1 198.681C268.791 198.835 268.791 199.145 269.1 199.3L272.918 201.518C273.227 201.673 273.692 201.673 274.001 201.518L278.335 198.99C278.645 198.835 278.645 198.526 278.335 198.371L274.569 196.153ZM281.688 192.025C281.379 191.871 280.915 191.871 280.605 192.025L276.271 194.553C275.962 194.708 275.962 195.018 276.271 195.172L280.089 197.391C280.399 197.546 280.863 197.546 281.173 197.391L285.506 194.863C285.816 194.708 285.816 194.399 285.506 194.244L281.688 192.025ZM288.808 187.898C288.499 187.743 288.034 187.743 287.725 187.898L283.391 190.426C283.081 190.581 283.081 190.89 283.391 191.045L287.209 193.264C287.518 193.418 287.983 193.418 288.292 193.264L292.626 190.736C292.935 190.581 292.935 190.271 292.626 190.117L288.808 187.898ZM295.928 183.771C295.618 183.616 295.154 183.616 294.844 183.771L290.511 186.299C290.201 186.453 290.201 186.763 290.511 186.918L294.328 189.136C294.638 189.291 295.102 189.291 295.412 189.136L299.746 186.608C300.055 186.453 300.055 186.144 299.746 185.989L295.928 183.771ZM303.202 179.592C302.893 179.437 302.428 179.437 302.119 179.592L297.785 182.12C297.476 182.275 297.476 182.584 297.785 182.739L301.603 184.957C301.912 185.112 302.377 185.112 302.686 184.957L307.02 182.429C307.33 182.275 307.33 181.965 307.02 181.81L303.202 179.592ZM310.322 175.464C310.012 175.31 309.548 175.31 309.238 175.464L304.905 177.992C304.595 178.147 304.595 178.457 304.905 178.612L308.722 180.83C309.032 180.985 309.496 180.985 309.806 180.83L314.14 178.302C314.449 178.147 314.449 177.838 314.14 177.683L310.322 175.464ZM238.351 224.734C238.042 224.58 237.578 224.58 237.268 224.734L232.934 227.262C232.625 227.417 232.625 227.727 232.934 227.882L236.752 230.1C237.062 230.255 237.526 230.255 237.836 230.1L242.169 227.572C242.479 227.417 242.479 227.108 242.169 226.953L238.351 224.734ZM245.471 220.607C245.162 220.452 244.697 220.452 244.388 220.607L240.054 223.135C239.744 223.29 239.744 223.599 240.054 223.754L243.872 225.973C244.181 226.127 244.646 226.127 244.955 225.973L249.289 223.445C249.598 223.29 249.598 222.98 249.289 222.826L245.471 220.607ZM252.591 216.48C252.281 216.325 251.817 216.325 251.507 216.48L247.174 219.008C246.864 219.163 246.864 219.472 247.174 219.627L250.991 221.845C251.301 222 251.765 222 252.075 221.845L256.409 219.317C256.718 219.163 256.718 218.853 256.409 218.698L252.591 216.48ZM259.71 212.404C259.401 212.249 258.937 212.249 258.627 212.404L254.293 214.932C253.984 215.087 253.984 215.396 254.293 215.551L258.111 217.77C258.421 217.924 258.885 217.924 259.195 217.77L263.528 215.242C263.838 215.087 263.838 214.777 263.528 214.623L259.71 212.404ZM266.985 208.174C266.675 208.019 266.211 208.019 265.901 208.174L261.568 210.702C261.258 210.856 261.258 211.166 261.568 211.321L265.386 213.539C265.695 213.694 266.159 213.694 266.469 213.539L270.803 211.011C271.112 210.856 271.112 210.547 270.803 210.392L266.985 208.174ZM274.104 204.098C273.795 203.943 273.331 203.943 273.021 204.098L268.687 206.626C268.378 206.781 268.378 207.09 268.687 207.245L272.505 209.463C272.815 209.618 273.279 209.618 273.589 209.463L277.922 206.935C278.232 206.781 278.232 206.471 277.922 206.316L274.104 204.098ZM281.224 199.97C280.915 199.816 280.45 199.816 280.141 199.97L275.807 202.499C275.497 202.653 275.497 202.963 275.807 203.118L279.625 205.336C279.934 205.491 280.399 205.491 280.708 205.336L285.042 202.808C285.351 202.653 285.351 202.344 285.042 202.189L281.224 199.97ZM288.344 195.843C288.034 195.688 287.57 195.688 287.26 195.843L282.927 198.371C282.617 198.526 282.617 198.835 282.927 198.99L286.744 201.209C287.054 201.363 287.518 201.363 287.828 201.209L292.162 198.681C292.471 198.526 292.471 198.216 292.162 198.062L288.344 195.843ZM295.463 191.767C295.154 191.613 294.69 191.613 294.38 191.767L290.046 194.295C289.737 194.45 289.737 194.76 290.046 194.915L293.864 197.133C294.174 197.288 294.638 197.288 294.948 197.133L299.281 194.605C299.591 194.45 299.591 194.141 299.281 193.986L295.463 191.767ZM302.583 187.64C302.274 187.485 301.809 187.485 301.5 187.64L297.166 190.168C296.856 190.323 296.856 190.632 297.166 190.787L300.984 193.006C301.293 193.16 301.758 193.16 302.067 193.006L306.401 190.478C306.71 190.323 306.71 190.013 306.401 189.859L302.583 187.64ZM309.858 183.461C309.548 183.306 309.084 183.306 308.774 183.461L304.44 185.989C304.131 186.144 304.131 186.453 304.44 186.608L308.258 188.827C308.568 188.981 309.032 188.981 309.342 188.827L313.675 186.299C313.985 186.144 313.985 185.834 313.675 185.68L309.858 183.461ZM316.977 179.334C316.668 179.179 316.203 179.179 315.894 179.334L311.56 181.862C311.25 182.017 311.25 182.326 311.56 182.481L315.378 184.699C315.687 184.854 316.152 184.854 316.461 184.699L320.795 182.171C321.104 182.017 321.104 181.707 320.795 181.552L316.977 179.334ZM244.8 228.449C244.491 228.294 244.027 228.294 243.717 228.449L239.383 230.977C239.074 231.132 239.074 231.441 239.383 231.596L243.201 233.815C243.511 233.969 243.975 233.969 244.285 233.815L248.618 231.287C248.928 231.132 248.928 230.822 248.618 230.668L244.8 228.449ZM251.92 224.373C251.611 224.219 251.146 224.219 250.837 224.373L246.503 226.901C246.193 227.056 246.193 227.366 246.503 227.52L250.321 229.739C250.63 229.894 251.095 229.894 251.404 229.739L255.738 227.211C256.047 227.056 256.047 226.747 255.738 226.592L251.92 224.373ZM259.04 220.246C258.73 220.091 258.266 220.091 257.956 220.246L253.623 222.774C253.313 222.929 253.313 223.238 253.623 223.393L257.44 225.612C257.75 225.766 258.214 225.766 258.524 225.612L262.858 223.084C263.167 222.929 263.167 222.619 262.858 222.464L259.04 220.246ZM266.159 216.119C265.85 215.964 265.385 215.964 265.076 216.119L260.742 218.647C260.433 218.801 260.433 219.111 260.742 219.266L264.56 221.484C264.87 221.639 265.334 221.639 265.643 221.484L269.977 218.956C270.287 218.801 270.287 218.492 269.977 218.337L266.159 216.119ZM273.434 211.94C273.124 211.785 272.66 211.785 272.35 211.94L268.017 214.468C267.707 214.623 267.707 214.932 268.017 215.087L271.834 217.305C272.144 217.46 272.608 217.46 272.918 217.305L277.252 214.777C277.561 214.623 277.561 214.313 277.252 214.158L273.434 211.94ZM280.553 207.812C280.244 207.658 279.78 207.658 279.47 207.812L275.136 210.34C274.827 210.495 274.827 210.805 275.136 210.96L278.954 213.178C279.264 213.333 279.728 213.333 280.038 213.178L284.371 210.65C284.681 210.495 284.681 210.186 284.371 210.031L280.553 207.812ZM287.673 203.685C287.364 203.53 286.899 203.53 286.59 203.685L282.256 206.213C281.946 206.368 281.946 206.677 282.256 206.832L286.074 209.051C286.383 209.205 286.848 209.205 287.157 209.051L291.491 206.523C291.8 206.368 291.8 206.058 291.491 205.904L287.673 203.685ZM294.844 199.609C294.535 199.455 294.019 199.455 293.761 199.609L289.427 202.137C289.118 202.292 289.118 202.602 289.427 202.756L293.245 204.975C293.555 205.13 294.019 205.13 294.328 204.975L298.662 202.447C298.972 202.292 298.972 201.983 298.662 201.828L294.844 199.609ZM301.964 195.482C301.654 195.327 301.19 195.327 300.881 195.482L296.547 198.01C296.237 198.165 296.237 198.474 296.547 198.629L300.365 200.848C300.674 201.002 301.139 201.002 301.448 200.848L305.782 198.32C306.091 198.165 306.091 197.855 305.782 197.7L301.964 195.482ZM309.084 191.355C308.774 191.2 308.31 191.2 308 191.355L303.667 193.883C303.357 194.037 303.357 194.347 303.667 194.502L307.484 196.72C307.794 196.875 308.258 196.875 308.568 196.72L312.901 194.192C313.211 194.037 313.211 193.728 312.901 193.573L309.084 191.355ZM316.358 187.176C316.049 187.021 315.584 187.021 315.275 187.176L310.941 189.704C310.631 189.859 310.631 190.168 310.941 190.323L314.759 192.541C315.068 192.696 315.533 192.696 315.842 192.541L320.176 190.013C320.485 189.859 320.485 189.549 320.176 189.394L316.358 187.176ZM323.478 183.048C323.168 182.894 322.704 182.894 322.394 183.048L318.061 185.576C317.751 185.731 317.751 186.041 318.061 186.196L321.878 188.414C322.188 188.569 322.652 188.569 322.962 188.414L327.296 185.886C327.605 185.731 327.605 185.422 327.296 185.267L323.478 183.048ZM251.456 232.318C251.146 232.164 250.682 232.164 250.372 232.318L246.039 234.846C245.729 235.001 245.729 235.311 246.039 235.466L249.856 237.684C250.166 237.839 250.63 237.839 250.94 237.684L255.274 235.156C255.583 235.001 255.583 234.692 255.274 234.537L251.456 232.318ZM258.575 228.191C258.266 228.036 257.802 228.036 257.492 228.191L253.158 230.719C252.849 230.874 252.849 231.183 253.158 231.338L256.976 233.557C257.286 233.711 257.75 233.711 258.059 233.557L262.393 231.029C262.703 230.874 262.703 230.564 262.393 230.41L258.575 228.191ZM265.695 224.064C265.386 223.909 264.921 223.909 264.612 224.064L260.278 226.592C259.968 226.747 259.968 227.056 260.278 227.211L264.096 229.429C264.405 229.584 264.87 229.584 265.179 229.429L269.513 226.901C269.822 226.747 269.822 226.437 269.513 226.282L265.695 224.064ZM272.815 219.988C272.505 219.833 272.041 219.833 271.731 219.988L267.398 222.516C267.088 222.671 267.088 222.98 267.398 223.135L271.215 225.354C271.525 225.508 271.989 225.508 272.299 225.354L276.632 222.826C276.942 222.671 276.942 222.361 276.632 222.206L272.815 219.988ZM308.568 199.3C308.258 199.145 307.794 199.145 307.484 199.3L303.151 201.828C302.841 201.983 302.841 202.292 303.151 202.447L306.968 204.665C307.278 204.82 307.742 204.82 308.052 204.665L312.386 202.137C312.695 201.983 312.695 201.673 312.386 201.518L308.568 199.3ZM315.687 195.224C315.378 195.069 314.913 195.069 314.604 195.224L310.27 197.752C309.961 197.907 309.961 198.216 310.27 198.371L314.088 200.59C314.398 200.744 314.862 200.744 315.171 200.59L319.505 198.062C319.815 197.907 319.815 197.597 319.505 197.442L315.687 195.224ZM322.962 190.994C322.652 190.839 322.188 190.839 321.878 190.994L317.545 193.522C317.235 193.676 317.235 193.986 317.545 194.141L321.362 196.359C321.672 196.514 322.136 196.514 322.446 196.359L326.78 193.831C327.089 193.676 327.089 193.367 326.78 193.212L322.962 190.994ZM330.133 186.918C329.823 186.763 329.359 186.763 329.05 186.918L324.716 189.446C324.406 189.601 324.406 189.91 324.716 190.065L328.534 192.283C328.843 192.438 329.308 192.438 329.617 192.283L333.951 189.755C334.26 189.601 334.26 189.291 333.951 189.136L330.133 186.918ZM300.416 203.479L296.083 206.007L293.348 207.606L288.963 210.134L286.177 211.733L281.843 214.261L279.057 215.861L274.724 218.389C274.414 218.543 274.414 218.853 274.724 219.008L278.593 221.226C278.903 221.381 279.367 221.381 279.676 221.226L280.605 220.71L284.062 218.698L286.848 217.099L291.181 214.571L293.967 212.972L298.301 210.444L301.087 208.844L305.111 206.523L305.472 206.316C305.782 206.161 305.782 205.852 305.472 205.697L301.603 203.479C301.19 203.272 300.726 203.272 300.416 203.479Z" stroke="#31475E" stroke-miterlimit="10"/>
<path d="M294.481 176.962L233.448 212.199C232.519 212.715 231.797 212.354 231.797 211.322C231.797 210.29 232.519 209.104 233.448 208.536L294.481 173.299C295.409 172.783 296.132 173.093 296.132 174.176C296.132 175.208 295.409 176.446 294.481 176.962Z" fill="#31475E"/>
<path d="M301.09 231.752C299.232 232.835 296.137 232.835 294.28 231.752L284.838 226.283C282.981 225.199 282.981 223.445 284.838 222.362L305.836 210.238C307.693 209.154 310.789 209.154 312.646 210.238L322.087 215.707C323.945 216.79 323.945 218.544 322.087 219.628L301.09 231.752Z" fill="#FFCCB3"/>
<path d="M227.872 169.577C227.666 169.577 227.408 169.474 227.305 169.267C227.099 168.958 227.253 168.545 227.563 168.339L287.1 133.979C287.409 133.772 287.822 133.927 288.028 134.237C288.235 134.546 288.08 134.959 287.77 135.165L228.234 169.474C228.13 169.577 228.027 169.577 227.872 169.577Z" fill="#FF5C00"/>
<path d="M227.872 174.222C227.666 174.222 227.408 174.119 227.305 173.912C227.099 173.603 227.253 173.19 227.563 172.984L287.1 138.624C287.409 138.417 287.822 138.572 288.028 138.881C288.235 139.191 288.08 139.604 287.77 139.81L228.234 174.119C228.13 174.17 228.027 174.222 227.872 174.222Z" fill="#FF5C00"/>
<path d="M227.872 178.863C227.666 178.863 227.408 178.76 227.305 178.554C227.099 178.244 227.253 177.831 227.563 177.625L239.119 170.918C239.429 170.712 239.842 170.867 240.048 171.176C240.254 171.486 240.1 171.898 239.79 172.105L228.234 178.812C228.13 178.812 228.027 178.863 227.872 178.863Z" fill="#FF5C00"/>
<path d="M250.161 165.966C249.955 165.966 249.697 165.863 249.594 165.657C249.388 165.347 249.542 164.934 249.852 164.728L287.101 143.214C287.411 143.008 287.823 143.163 288.03 143.472C288.236 143.782 288.081 144.195 287.772 144.401L250.523 165.915C250.419 165.966 250.265 165.966 250.161 165.966Z" fill="#FF5C00"/>
<path d="M227.872 183.457C227.666 183.457 227.408 183.354 227.305 183.147C227.099 182.838 227.253 182.425 227.563 182.219L260.685 163.078C260.994 162.872 261.407 163.027 261.613 163.336C261.82 163.646 261.665 164.058 261.355 164.265L228.234 183.354C228.13 183.457 228.027 183.457 227.872 183.457Z" fill="#FF5C00"/>
<path d="M275.599 155.905C275.393 155.905 275.135 155.802 275.031 155.595C274.825 155.286 274.98 154.873 275.289 154.666L287.104 147.856C287.413 147.65 287.826 147.805 288.033 148.114C288.239 148.424 288.084 148.837 287.775 149.043L275.96 155.853C275.857 155.905 275.702 155.905 275.599 155.905Z" fill="#FF5C00"/>
<path d="M227.872 188.097C227.666 188.097 227.408 187.994 227.305 187.788C227.099 187.478 227.253 187.065 227.563 186.859L287.1 152.499C287.409 152.293 287.822 152.447 288.028 152.757C288.235 153.067 288.08 153.479 287.77 153.686L228.234 187.994C228.13 188.046 228.027 188.097 227.872 188.097Z" fill="#FF5C00"/>
<path d="M227.872 192.741C227.666 192.741 227.408 192.638 227.305 192.432C227.099 192.122 227.253 191.71 227.563 191.503L257.589 174.168C257.899 173.962 258.311 174.117 258.518 174.426C258.724 174.736 258.569 175.149 258.26 175.355L228.234 192.638C228.13 192.69 228.027 192.741 227.872 192.741Z" fill="#FF5C00"/>
<path d="M267.24 169.991C267.033 169.991 266.775 169.887 266.672 169.681C266.466 169.372 266.62 168.959 266.93 168.752L287.154 157.093C287.464 156.886 287.876 157.041 288.083 157.351C288.289 157.66 288.134 158.073 287.825 158.279L267.601 169.939C267.446 169.991 267.343 169.991 267.24 169.991Z" fill="#FF5C00"/>
<path d="M337 186.268C337 181.086 331.482 180.51 328.723 180.87C326.684 180.87 322.245 181.086 320.806 181.95C319.007 183.029 314.688 186.268 311.809 187.348C309.506 188.211 307.971 187.708 307.491 187.348L301.013 183.029C300.054 182.669 297.774 182.166 296.335 183.029C294.895 183.893 295.735 185.548 296.335 186.268C298.254 187.828 302.741 191.522 305.332 193.825C307.923 196.128 310.73 195.745 311.809 195.265L317.927 192.386V256.802C317.927 258.122 318.863 260.761 322.605 260.761C326.348 260.761 327.284 258.841 327.284 257.882V254.643C327.404 255.243 328.363 256.514 331.242 256.802C334.121 257.09 335.321 254.283 335.561 252.844C336.04 232.811 337 191.45 337 186.268Z" fill="white" stroke="#31475E" stroke-width="0.8"/>
<circle r="8.59669" transform="matrix(-1 0 0 1 327.285 168.997)" fill="white" stroke="#31475E" stroke-width="0.8"/>
<path d="M327.312 223.887V254.785" stroke="#31475E" stroke-width="0.8"/>
<path d="M463.105 132.197L463.102 132.195L402.798 97.8688C402.299 97.585 401.912 97.4954 401.619 97.5002C401.332 97.5048 401.102 97.6002 400.909 97.7499C400.515 98.0566 400.269 98.605 400.173 99.0595C400.239 106.031 400.318 116.636 400.341 125.861C400.353 130.484 400.351 134.762 400.325 138.062C400.3 141.345 400.253 143.699 400.17 144.442C400.028 145.713 400.502 147.149 401.21 148.47C401.893 149.745 402.758 150.848 403.358 151.485C412.138 156.533 425.022 165.222 436.18 172.9C439.606 175.257 442.873 177.522 445.81 179.558C447.668 180.846 449.394 182.043 450.945 183.113C454.966 185.89 457.778 187.797 458.699 188.293C460.431 189.226 462.06 188.977 463.31 188.385C463.939 188.088 464.465 187.705 464.845 187.352C465.035 187.175 465.184 187.01 465.29 186.872C465.361 186.779 465.403 186.71 465.426 186.665C465.328 179.916 465.209 169.066 465.175 159.356C465.14 149.62 465.189 140.974 465.431 138.807C465.886 134.73 463.974 132.683 463.105 132.197Z" fill="white" stroke="#31475E"/>
<path d="M458.851 135.35L458.848 135.348L398.268 100.899C397.767 100.615 397.377 100.524 397.082 100.529C396.794 100.534 396.562 100.63 396.368 100.78C395.972 101.089 395.724 101.639 395.628 102.096C395.695 109.093 395.774 119.735 395.797 128.993C395.809 133.632 395.806 137.926 395.781 141.238C395.756 144.532 395.708 146.894 395.625 147.64C395.482 148.916 395.959 150.358 396.669 151.684C397.356 152.963 398.225 154.07 398.828 154.71C416.46 164.824 452.529 185.479 456.343 187.532C458.207 188.535 459.418 188.697 460.147 188.573C460.795 188.463 461.083 188.127 461.184 187.889C461.085 181.121 460.966 170.757 460.931 161.539C460.896 152.301 460.945 144.16 461.188 141.985C461.646 137.893 459.725 135.838 458.851 135.35Z" fill="white" stroke="#31475E"/>
<path d="M434.789 175.135V179.919L431.581 182.216L421.154 176.858V167.672" stroke="#31475E"/>
<path d="M435.02 179.399L446.602 185.958L435.02 192.518L404.789 174.629L415.389 167.672L421.475 171.051" stroke="#31475E"/>
<path d="M446.602 186.155L445.625 190.194L435.269 196.456L404.789 177.671V174.641" stroke="#31475E"/>
<path d="M455.411 155.779C455.595 155.779 455.824 155.677 455.916 155.474C456.1 155.169 455.962 154.763 455.687 154.56L402.675 120.724C402.399 120.521 402.032 120.674 401.848 120.978C401.664 121.283 401.802 121.69 402.078 121.893L455.089 155.677C455.181 155.779 455.273 155.779 455.411 155.779Z" fill="#FF5C00"/>
<path d="M455.411 160.023C455.595 160.023 455.824 159.921 455.916 159.718C456.1 159.413 455.962 159.007 455.687 158.804L402.675 124.968C402.399 124.765 402.032 124.917 401.848 125.222C401.664 125.527 401.802 125.934 402.078 126.137L455.089 159.921C455.181 159.972 455.273 160.023 455.411 160.023Z" fill="#FF5C00"/>
<path d="M455.396 164.567C455.584 164.567 455.82 164.462 455.914 164.252C456.103 163.937 455.961 163.517 455.678 163.307L445.118 156.482C444.835 156.272 444.458 156.43 444.269 156.745C444.081 157.06 444.222 157.48 444.505 157.69L455.066 164.515C455.16 164.515 455.254 164.567 455.396 164.567Z" fill="#FF5C00"/>
<path d="M436.013 151.841C436.199 151.841 436.432 151.741 436.525 151.542C436.711 151.242 436.571 150.842 436.292 150.643L402.688 129.814C402.409 129.614 402.036 129.764 401.85 130.064C401.664 130.363 401.803 130.763 402.083 130.963L435.687 151.791C435.78 151.841 435.92 151.841 436.013 151.841Z" fill="#FF5C00"/>
<path d="M455.419 169.415C455.6 169.415 455.827 169.311 455.917 169.103C456.099 168.791 455.963 168.376 455.691 168.168L426.599 148.906C426.327 148.698 425.965 148.854 425.783 149.165C425.602 149.477 425.738 149.892 426.01 150.1L455.102 169.311C455.192 169.415 455.283 169.415 455.419 169.415Z" fill="#FF5C00"/>
<path d="M412.993 141.843C413.178 141.843 413.409 141.743 413.502 141.544C413.687 141.244 413.548 140.845 413.271 140.645L402.685 134.056C402.408 133.857 402.038 134.006 401.853 134.306C401.669 134.605 401.807 135.005 402.085 135.204L412.67 141.793C412.762 141.843 412.901 141.843 412.993 141.843Z" fill="#FF5C00"/>
<path d="M455.411 173.96C455.595 173.96 455.824 173.858 455.916 173.655C456.1 173.35 455.962 172.944 455.687 172.74L402.675 138.905C402.399 138.702 402.032 138.854 401.848 139.159C401.664 139.464 401.802 139.87 402.078 140.074L455.089 173.858C455.181 173.909 455.273 173.96 455.411 173.96Z" fill="#FF5C00"/>
<path d="M455.419 178.202C455.6 178.202 455.827 178.101 455.917 177.9C456.099 177.599 455.963 177.197 455.691 176.996L429.326 160.114C429.054 159.913 428.691 160.063 428.51 160.365C428.329 160.666 428.465 161.068 428.737 161.269L455.102 178.101C455.193 178.152 455.283 178.202 455.419 178.202Z" fill="#FF5C00"/>
<path d="M420.562 156.386C420.748 156.386 420.979 156.28 421.072 156.069C421.257 155.751 421.118 155.328 420.84 155.116L402.683 143.151C402.405 142.939 402.034 143.098 401.849 143.416C401.664 143.733 401.803 144.157 402.081 144.369L420.238 156.333C420.377 156.386 420.47 156.386 420.562 156.386Z" fill="#FF5C00"/>
<path d="M378.211 134.257C378.211 138.575 381.47 142.015 385.418 142.015C389.366 142.015 392.625 138.575 392.625 134.257C392.625 129.94 389.366 126.5 385.418 126.5C381.47 126.5 378.211 129.94 378.211 134.257Z" fill="white" stroke="#31475E"/>
<path d="M414.056 137.224C416.048 134.937 414.834 132.692 414.056 131.918C412.722 130.923 411.052 131.918 409.384 132.913C407.716 133.907 400.709 140.208 398.039 142.861C395.37 145.514 389.698 145.183 381.356 146.509C374.683 147.57 372.792 150.931 372.681 152.479C371.902 156.237 370.545 165.412 371.346 172.045C372.147 178.677 374.794 180.114 376.018 180.004V211.84C375.795 213.829 376.284 217.743 380.021 217.477C383.759 217.212 384.248 213.608 384.025 211.84L385.694 183.983L387.696 211.176C387.028 213.719 386.828 218.738 391.366 218.472C395.904 218.207 396.593 215.045 396.371 213.498C396.26 207.308 395.837 193.534 395.036 187.963C394.035 180.998 395.036 161.101 395.036 156.126C395.036 151.152 410.081 141.786 414.056 137.224Z" fill="white"/>
<path d="M376.018 159.443V180.004M376.018 180.004V211.84C375.795 213.829 376.284 217.743 380.021 217.477C383.759 217.212 384.248 213.608 384.025 211.84L385.694 183.983L387.696 211.176C387.028 213.719 386.828 218.738 391.366 218.472C395.904 218.207 396.593 215.045 396.371 213.498C396.26 207.308 395.837 193.534 395.036 187.963C394.035 180.998 395.036 161.101 395.036 156.126C395.036 151.152 410.081 141.786 414.056 137.224C416.048 134.937 414.834 132.692 414.056 131.918C412.722 130.923 411.052 131.918 409.384 132.913C407.716 133.907 400.709 140.208 398.039 142.861C395.37 145.514 389.698 145.183 381.356 146.509C374.683 147.57 372.792 150.931 372.681 152.479C371.902 156.237 370.545 165.412 371.346 172.045C372.147 178.677 374.794 180.114 376.018 180.004Z" stroke="#31475E"/>
<path d="M3.40909 264.825C-1.13637 267.334 -1.13637 271.666 3.40909 274.175L44.3182 298.119C48.6364 300.627 55.9091 300.627 60.4545 298.119L101.591 274.175C106.136 271.666 106.136 267.334 101.591 264.825L60.6818 240.881C56.3636 238.373 49.0909 238.373 44.5455 240.881L3.40909 264.825Z" fill="#FFE7DA"/>
<path d="M3.40909 259.249C-1.13637 261.798 -1.13637 266.202 3.40909 268.751L44.3182 293.088C48.6364 295.637 55.9091 295.637 60.4545 293.088L101.591 268.751C106.136 266.202 106.136 261.798 101.591 259.249L60.6818 234.912C56.3636 232.363 49.0909 232.363 44.5455 234.912L3.40909 259.249Z" fill="#FFCFB5"/>
<path d="M3.40909 253.825C-1.13637 256.334 -1.13637 260.666 3.40909 263.175L44.3182 287.119C48.6364 289.627 55.9091 289.627 60.4545 287.119L101.591 263.175C106.136 260.666 106.136 256.334 101.591 253.825L60.6818 229.881C56.3636 227.373 49.0909 227.373 44.5455 229.881L3.40909 253.825Z" fill="white" stroke="#FF5C00" stroke-miterlimit="10" stroke-linecap="round" stroke-linejoin="round"/>
<path d="M48.5044 241.26C43.6116 241.26 38.7187 240.35 34.6603 238.416C29.8054 236.14 26.809 232.726 26.4676 229.085L26.4297 224.116H26.9986L27.0366 229.047C27.34 232.461 30.2226 235.723 34.8879 237.923C44.1426 242.247 57.7592 241.45 65.2691 236.102C68.6827 233.675 70.3516 230.602 69.9723 227.492V224.116H70.5413V227.454C70.9585 230.754 69.2138 234.016 65.6105 236.557C61.2866 239.629 54.9145 241.26 48.5044 241.26Z" fill="#31475E"/>
<path d="M48.4998 237.733C43.6069 237.733 38.714 236.822 34.6556 234.888C29.8007 232.612 26.8043 229.199 26.4629 225.52C26.1595 222.296 27.9422 219.148 31.4316 216.682C39.0933 211.258 52.9754 210.424 62.3818 214.824C67.2368 217.099 70.2332 220.513 70.5745 224.192C70.878 227.416 69.0953 230.564 65.6058 233.03C61.2819 236.14 54.9098 237.733 48.4998 237.733ZM48.5377 212.548C42.2415 212.548 36.0211 214.103 31.773 217.137C28.4353 219.489 26.7664 222.447 27.0319 225.482C27.3353 228.933 30.2179 232.195 34.8832 234.395C44.1379 238.719 57.7545 237.922 65.2644 232.574C68.6022 230.223 70.2711 227.264 70.0056 224.23C69.7021 220.778 66.8195 217.517 62.1542 215.317C58.1717 213.496 53.3547 212.548 48.5377 212.548ZM48.4998 236.14C44.2517 236.14 39.9657 235.343 36.4004 233.674C32.1523 231.664 29.5352 228.668 29.2318 225.482C28.9663 222.637 30.5213 219.906 33.5936 217.744C40.3071 213.003 52.4444 212.244 60.675 216.113C64.9231 218.123 67.5402 221.12 67.8436 224.306C68.1091 227.151 66.554 229.881 63.4818 232.081C59.6889 234.736 54.1133 236.14 48.4998 236.14ZM48.5377 214.179C43.0759 214.179 37.6141 215.544 33.897 218.199C31.0144 220.247 29.5352 222.827 29.8007 225.444C30.0662 228.44 32.5695 231.285 36.6279 233.181C44.7068 236.974 56.5787 236.254 63.1404 231.626C66.023 229.578 67.5023 226.999 67.2368 224.382C66.9713 221.385 64.4679 218.541 60.4095 216.644C56.958 214.975 52.7478 214.179 48.5377 214.179Z" fill="#31475E"/>
<path d="M58.9425 223.853C58.9425 224.118 58.8667 224.384 58.7529 224.687L58.6391 224.953L55.7944 224.346L55.8323 224.194C55.9461 223.359 55.1117 222.297 53.8601 221.577C51.774 220.363 49.8775 220.098 48.6258 220.818C47.8672 221.273 47.9052 221.766 48.3982 222.335C48.7775 222.791 49.3844 223.284 50.143 223.777C52.2291 225.332 54.0118 226.811 53.2911 228.29C53.0635 228.745 52.6084 229.163 51.8877 229.618C49.2327 231.135 45.5915 230.604 43.1261 229.352L43.0123 229.276L41.0779 230.376L38.8022 229.049L39.6366 228.594L40.6607 227.987L40.5469 227.911C39.5987 227.266 38.2712 226.09 38.1953 224.687V224.497C38.1953 224.156 38.3091 223.777 38.4987 223.397L38.6125 223.17L41.6089 223.89L41.5331 224.08C41.3814 224.497 41.4193 224.915 41.6089 225.332C41.9503 226.128 42.7847 226.887 43.6571 227.38C45.857 228.632 48.0569 228.935 49.4603 228.139C49.574 228.063 49.6878 227.987 49.7637 227.911C50.4843 227.266 49.8775 226.28 47.9431 224.839C46.2363 223.587 44.795 222.411 44.795 221.273C44.795 221.235 44.795 221.235 44.795 221.198C44.8329 220.591 45.2881 219.984 46.3501 219.377C49.4603 217.594 53.5566 219.225 54.7324 219.756L54.8462 219.794L56.5151 218.808L58.7908 220.136L57.5771 220.818L57.122 221.084L57.1978 221.16C57.5392 221.425 57.8426 221.691 58.0702 221.918C58.677 222.563 58.9805 223.17 58.9805 223.777C58.9426 223.815 58.9425 223.853 58.9425 223.853Z" fill="#31475E"/>
<path d="M48.0936 230.757C46.273 230.757 44.4524 230.264 43.0111 229.543L41.2284 230.567C41.1525 230.605 41.0387 230.605 40.9629 230.567L38.6871 229.24C38.6113 229.202 38.5354 229.088 38.5354 229.012C38.5354 228.898 38.5734 228.822 38.6871 228.784L40.1285 227.95C39.1044 227.191 38.0044 226.054 37.8906 224.688V224.46C37.8906 224.043 38.0044 223.626 38.232 223.247L38.3458 223.019C38.4216 222.905 38.5354 222.83 38.6492 222.867L41.6456 223.588C41.7215 223.626 41.7973 223.664 41.8353 223.74C41.8732 223.816 41.8732 223.892 41.8353 223.967L41.7594 224.157C41.6456 224.46 41.6456 224.802 41.7973 225.181C42.1008 225.864 42.7835 226.585 43.7317 227.078C45.8558 228.291 47.9419 228.595 49.2314 227.836C49.3452 227.76 49.4211 227.722 49.459 227.647C49.6107 227.495 49.6866 227.381 49.6866 227.191C49.6866 226.85 49.3073 226.167 47.6763 224.991C45.9695 223.74 44.4144 222.526 44.4144 221.199C44.4144 221.161 44.4144 221.123 44.4144 221.085C44.4524 220.364 44.9834 219.681 46.0833 219.037C49.2694 217.178 53.4795 218.809 54.6932 219.378L56.2483 218.468C56.3242 218.43 56.438 218.43 56.5518 218.468L58.8275 219.795C58.9034 219.833 58.9792 219.947 58.9792 220.023C58.9792 220.137 58.9413 220.212 58.8275 220.25L57.5 221.009C57.7655 221.237 57.9551 221.426 58.1448 221.616C58.7896 222.299 59.1309 222.943 59.1309 223.626C59.1309 223.664 59.1309 223.664 59.1309 223.702C59.1309 224.005 59.0551 224.309 58.9413 224.65L58.8275 224.916C58.7896 225.029 58.6379 225.105 58.4861 225.067L55.6415 224.46C55.4897 224.423 55.4139 224.309 55.4139 224.157L55.4518 224.005C55.5277 223.323 54.7691 222.299 53.5933 221.654C51.5831 220.516 49.8004 220.212 48.6625 220.895C48.397 221.047 48.2453 221.199 48.2453 221.35C48.2073 221.502 48.3212 221.73 48.5487 221.995C48.928 222.45 49.5728 222.943 50.2176 223.398C52.3037 224.954 54.276 226.585 53.4795 228.253C53.214 228.784 52.7209 229.24 51.9623 229.695C50.8624 230.453 49.497 230.757 48.0936 230.757ZM43.0111 228.936C43.049 228.936 43.0869 228.936 43.1628 228.974L43.2766 229.05C45.6661 230.226 49.2315 230.795 51.7727 229.315C52.4554 228.936 52.8726 228.519 53.0623 228.14C53.6312 227.002 52.3037 225.712 49.99 224.005C49.3073 223.512 48.6246 222.981 48.2074 222.488C47.866 222.071 47.7143 221.73 47.7901 221.388C47.8281 221.047 48.0936 220.781 48.5108 220.554C49.8383 219.795 51.8485 220.061 54.0105 221.312C55.376 222.071 56.2104 223.209 56.1346 224.157L58.4861 224.65V224.612C58.5999 224.385 58.6379 224.119 58.6379 223.892H58.9413H58.6379C58.6379 223.323 58.3344 222.792 57.8034 222.185C57.5758 221.957 57.3103 221.692 56.969 221.426L56.8931 221.35C56.8173 221.274 56.7793 221.199 56.7793 221.123C56.7793 221.047 56.8552 220.933 56.9311 220.895L58.1827 220.174L56.4759 219.188L54.9208 220.061C54.845 220.099 54.7312 220.099 54.6553 220.061L54.5415 220.023C53.4037 219.492 49.3832 217.937 46.4247 219.643C45.5144 220.174 45.0592 220.705 45.0213 221.236L44.7179 221.274H45.0213C45.0213 222.299 46.5764 223.55 48.0556 224.574C49.5349 225.674 50.2555 226.509 50.2935 227.191C50.2935 227.533 50.1797 227.836 49.9142 228.064C49.8383 228.14 49.7245 228.215 49.5728 228.329C48.0936 229.164 45.7799 228.898 43.5041 227.571C42.4801 226.964 41.6835 226.167 41.3422 225.371C41.1525 224.878 41.1146 224.46 41.2284 224.043L38.763 223.436L38.7251 223.474C38.5734 223.778 38.4596 224.119 38.4596 224.423V224.612C38.5354 225.94 39.9009 227.04 40.6974 227.609L40.8112 227.684C40.887 227.722 40.925 227.836 40.925 227.912C40.925 228.026 40.8491 228.102 40.7732 228.14L39.3699 228.936L41.0767 229.922L42.8593 228.898C42.9352 228.974 42.9731 228.936 43.0111 228.936Z" fill="#31475E"/>
<path d="M58.1749 247.437C53.282 247.437 48.3892 246.526 44.3308 244.592C41.524 243.265 39.2862 241.558 37.8828 239.623L38.338 239.282C39.7034 241.141 41.8274 242.809 44.5583 244.061C53.8131 248.385 67.4296 247.588 74.9396 242.24C78.3532 239.813 80.0221 236.741 79.6428 233.631V230.255H80.2118V233.593C80.629 236.892 78.8842 240.154 75.281 242.696C70.957 245.844 64.5849 247.437 58.1749 247.437Z" fill="#31475E"/>
<path d="M58.2905 243.87C53.3597 243.87 48.353 242.922 44.2188 240.987L44.4463 240.456C53.7769 244.856 67.4693 244.059 74.9793 238.749C78.317 236.398 79.9859 233.439 79.7204 230.405C79.417 226.953 76.5344 223.692 71.8691 221.492C70.845 220.999 69.7451 220.581 68.6072 220.24L68.7968 219.709C69.9726 220.088 71.1105 220.506 72.1346 220.999C76.9895 223.274 79.9859 226.688 80.3273 230.367C80.6307 233.591 78.848 236.739 75.3586 239.205C70.9967 242.277 64.6625 243.87 58.2905 243.87Z" fill="#31475E"/>
<path d="M52.1775 256.355C47.2846 256.355 42.3917 255.444 38.3333 253.51C33.4405 251.234 30.4441 247.82 30.1406 244.179V239.893H30.7096V244.141C31.013 247.555 33.8956 250.779 38.5988 253.017C47.8535 257.341 61.4701 256.544 68.9801 251.196C72.1282 248.958 73.835 246.152 73.7212 243.269L74.2901 243.231C74.4039 246.303 72.6213 249.3 69.3214 251.651C64.9596 254.724 58.5875 256.355 52.1775 256.355Z" fill="#31475E"/>
<path d="M52.181 252.825C47.2882 252.825 42.3953 251.915 38.3369 249.981C34.2785 248.084 31.5096 245.391 30.5235 242.395C29.8408 240.271 30.0304 238.071 31.1304 236.061L31.6234 236.326C30.5993 238.223 30.4097 240.271 31.0545 242.243C32.0027 245.088 34.6578 247.667 38.5645 249.487C47.8192 253.811 61.4357 253.015 68.9457 247.667C70.6525 246.453 71.9421 245.05 72.7386 243.571L73.2317 243.836C72.3973 245.391 71.0318 246.832 69.2491 248.122C64.9631 251.232 58.591 252.825 52.181 252.825Z" fill="#31475E"/>
<path d="M47.0681 260.91C42.1752 260.91 37.2824 260 33.2239 258.066C28.4069 255.79 25.4485 252.452 25.0692 248.849C25.0313 248.811 25.0312 248.773 25.0312 248.697V243.766H25.6002V248.583C25.6002 248.621 25.6381 248.659 25.6381 248.697C25.9416 252.149 28.8242 255.373 33.4895 257.573C42.7442 261.896 56.3607 261.1 63.8707 255.752C65.3499 254.69 66.4878 253.552 67.2843 252.3L67.7774 252.604C66.9429 253.893 65.7292 255.107 64.2121 256.207C59.8123 259.317 53.4781 260.91 47.0681 260.91Z" fill="#31475E"/>
<path d="M47.1121 257.42C42.1434 257.42 37.2126 256.471 33.2301 254.575C28.4889 252.337 25.5684 249.151 25.0753 245.586C24.6581 242.665 25.9856 239.745 28.7923 237.355L29.1716 237.772C26.5166 240.048 25.3029 242.779 25.6442 245.51C26.0994 248.885 28.8682 251.92 33.4576 254.082C40.0194 257.154 49.1603 257.723 56.7461 255.561L56.8978 256.092C53.7877 256.964 50.4499 257.42 47.1121 257.42Z" fill="#31475E"/>
<path d="M52.1742 267.772C47.2813 267.772 42.3885 266.862 38.33 264.928C33.8165 262.804 30.9718 259.807 30.2891 256.432L30.858 256.318C31.5028 259.504 34.2716 262.386 38.5956 264.435C47.8503 268.759 61.4668 267.962 68.9768 262.614C72.3904 260.187 74.0593 257.114 73.68 254.004V250.628H74.2489V253.966C74.6662 257.266 72.9214 260.528 69.3182 263.069C64.9563 266.141 58.5842 267.772 52.1742 267.772Z" fill="#31475E"/>
<path d="M52.1768 264.244C47.2839 264.244 42.391 263.334 38.3326 261.4C36.5879 260.565 34.8811 259.427 33.5156 258.214L33.8949 257.796C35.2224 259.01 36.8913 260.11 38.5602 260.907C47.8149 265.231 61.4315 264.434 68.9415 259.086C73.5309 255.824 74.8963 251.538 72.6206 247.556L73.1137 247.29C75.5411 251.538 74.0998 256.128 69.2449 259.541C64.9589 262.651 58.5868 264.244 52.1768 264.244Z" fill="#31475E"/>
</g>
<defs>
<linearGradient id="paint0_linear_42_13041" x1="131" y1="95" x2="131" y2="182" gradientUnits="userSpaceOnUse">
<stop stop-color="#FF5C00"/>
<stop offset="1" stop-color="#FF5C00" stop-opacity="0"/>
</linearGradient>
<linearGradient id="paint1_linear_42_13041" x1="131" y1="115" x2="131" y2="202" gradientUnits="userSpaceOnUse">
<stop stop-color="#FF5C00"/>
<stop offset="1" stop-color="#FF5C00" stop-opacity="0"/>
</linearGradient>
<clipPath id="clip0_42_13041">
<rect width="497" height="300" fill="white"/>
</clipPath>
</defs>
</svg>
