<?xml version="1.0" encoding="utf-8"?><!-- Uploaded to: SVG Repo, www.svgrepo.com, Generator: SVG Repo Mixer Tools -->
<svg version="1.1" id="designs" xmlns="http://www.w3.org/2000/svg" xmlns:xlink="http://www.w3.org/1999/xlink" 
	 width="800px" height="800px" viewBox="0 0 32 32" xml:space="preserve">
<style type="text/css">
	.scienceandfiction_een{fill:#2B4099;}
	.scienceandfiction_twee{fill:#CC2954;}
</style>
<path class="scienceandfiction_een" d="M28.414,23h-1c0-1.103-0.897-2-2-2c-0.331,0-0.65,0.089-0.937,0.242
	c0.064,0.244,0.109,0.495,0.109,0.758h-1c0-1.103-0.897-2-2-2c-0.503,0-1.109,0.106-1.48,0.447l-0.553-0.653
	C20.108,19.282,20.831,19,21.586,19c1.036,0,1.951,0.528,2.49,1.329C24.489,20.122,24.942,20,25.414,20
	C27.068,20,28.414,21.346,28.414,23z M31,23c0,2.76-2.14,5-4.77,5c-0.33,0-0.65-0.04-0.97-0.1c-1.2,1.3-2.89,2.1-4.76,2.1
	s-3.56-0.8-4.76-2.1c-0.32,0.06-0.64,0.1-0.97,0.1C12.14,28,10,25.76,10,23c0-0.66,0.12-1.29,0.35-1.87
	c0.27,0.21,0.56,0.39,0.86,0.56C11.07,22.1,11,22.54,11,23c0,2.21,1.69,4,3.77,4c0.23,0,0.49-0.03,0.78-0.08l0.54-0.11l0.38,0.41
	C17.53,28.37,18.96,29,20.5,29s2.97-0.63,4.03-1.78l0.38-0.41l0.54,0.11C25.74,26.97,26,27,26.23,27c2.08,0,3.77-1.79,3.77-4
	c0-2.21-1.69-4-3.77-4c-0.23,0-0.49,0.03-0.78,0.08l-0.54,0.11l-0.38-0.41c-0.87-0.94-1.98-1.54-3.21-1.71
	c0.08-0.32,0.13-0.65,0.15-0.98c1.48,0.21,2.8,0.94,3.79,2.01c0.32-0.06,0.64-0.1,0.97-0.1C28.86,18,31,20.24,31,23z"/>
<path class="scienceandfiction_twee" d="M15,2v4h-1V2H15L15,2z M15,25h-1v4h1V25L15,25z M23.692,5.601l-2.828,2.828l0.707,0.707
	l2.828-2.828L23.692,5.601L23.692,5.601z M7.429,21.864l-2.828,2.828l0.707,0.707l2.828-2.828L7.429,21.864L7.429,21.864z
	 M21.571,21.864l-0.707,0.707l2.828,2.828l0.707-0.707L21.571,21.864L21.571,21.864z M5.308,5.601L4.601,6.308l2.828,2.828
	l0.707-0.707L5.308,5.601L5.308,5.601z M28,15h-4v1h4V15L28,15z M5,15H1v1h4V15L5,15z M20,15.5c0-3.033-2.468-5.5-5.5-5.5
	c-1.469,0-2.851,0.572-3.889,1.611l0.707,0.707C12.168,11.468,13.298,11,14.5,11c2.481,0,4.5,2.019,4.5,4.5
	c0,0.798-0.211,1.581-0.61,2.265l0.863,0.504C19.742,17.432,20,16.475,20,15.5z M14.5,9C10.916,9,8,11.916,8,15.5s2.916,6.5,6.5,6.5
	s6.5-2.916,6.5-6.5S18.084,9,14.5,9z M14.5,8c4.142,0,7.5,3.358,7.5,7.5S18.642,23,14.5,23S7,19.642,7,15.5S10.358,8,14.5,8L14.5,8z
	"/>
</svg>